<svg width="1536" height="512" viewBox="0 0 1536 512" fill="none" xmlns="http://www.w3.org/2000/svg">
<g clip-path="url(#clip0_1001_14555)">
<rect width="1536" height="512" fill="white"/>
<circle cx="364.843" cy="181.385" r="117.423" fill="url(#paint0_linear_1001_14555)"/>
<path opacity="0.8" d="M1529.02 132.912C1529.02 -102.194 1316.19 -324.803 1059.73 -363.36C824.622 -363.36 634.031 -172.769 634.031 62.3377C634.031 297.444 824.622 488.035 1059.73 488.035C1294.83 488.035 1529.02 368.019 1529.02 132.912Z" fill="url(#paint1_linear_1001_14555)"/>
<circle cx="136.909" cy="393.771" r="68.9094" fill="url(#paint2_linear_1001_14555)"/>
<circle cx="483.265" cy="440.954" r="51.9814" fill="url(#paint3_linear_1001_14555)"/>
<circle cx="1361.57" cy="104.641" r="53" fill="white"/>
<path opacity="0.1" d="M663.71 275.523L764.808 178.76C769.562 173.307 777.672 172.468 783.545 176.663L1054.4 357.744C1061.11 362.638 1065.58 378.999 1052.58 391.863L953.021 504.847C948.266 510.3 940.156 511.139 934.283 506.944L667.485 312.159C657.977 302.651 651.405 287.829 663.71 275.523Z" fill="#5C5A8E"/>
<path d="M640.866 200.634L742.994 84.5942C747.748 79.1408 755.858 78.3018 761.731 82.4968L1032.44 283.636C1039.16 288.53 1043.63 304.89 1030.63 317.755L931.067 430.738C926.313 436.192 918.202 437.031 912.329 432.836L645.671 238.051C636.163 228.682 628.561 212.939 640.866 200.634Z" fill="url(#paint4_linear_1001_14555)"/>
<path d="M920.58 436.052C917.503 436.052 914.567 435.073 911.91 433.255L645.252 238.61C639.798 233.157 636.163 226.864 634.904 220.851C633.366 213.44 635.743 206.589 641.476 200.856L742.574 104.092C747.608 98.3593 755.998 97.5203 762.151 101.995L1032.86 282.937C1036.5 285.593 1039.16 291.047 1039.58 296.92C1040.14 304.61 1037.2 312.161 1031.19 318.174L931.626 431.018C928.69 434.374 924.775 436.052 920.58 436.052ZM642.455 201.974C637.002 207.428 634.904 213.72 636.303 220.712C637.421 226.445 640.917 232.457 646.231 237.631L912.889 432.137C918.482 436.192 926.173 435.353 930.647 430.179L1030.21 317.195C1035.94 311.462 1038.74 304.331 1038.18 297.06C1037.76 291.606 1035.38 286.572 1032.03 284.055L761.312 103.114C755.719 99.0585 748.028 99.8974 743.553 105.071L642.455 201.974Z" fill="url(#paint5_linear_1001_14555)"/>
<path d="M643.434 199.457L742.994 86.4731C747.748 81.0197 755.858 80.1807 761.731 84.3757L1028.53 279.021C1035.24 283.915 1036.22 293.423 1030.77 299.576L931.207 412.56C926.453 418.013 918.342 418.852 912.469 414.657L668.184 236.372L645.532 219.872C638.959 215.118 637.981 205.609 643.434 199.457Z" fill="white"/>
<path d="M691.676 268.255L679.65 259.725C678.252 258.746 677.273 257.068 677.273 255.251V251.056C677.273 249.518 679.091 248.539 680.35 249.517L691.676 257.488C693.354 258.607 694.193 260.564 694.193 262.522V266.996C694.193 268.255 692.795 268.954 691.676 268.255Z" fill="url(#paint6_linear_1001_14555)"/>
<path d="M752.083 311.742L708.036 280.28C706.498 279.161 705.519 277.344 705.519 275.386V271.89C705.519 270.072 707.477 269.093 708.875 270.072L752.363 301.115C753.761 302.094 754.6 303.632 754.6 305.31V310.344C754.6 311.742 753.202 312.441 752.083 311.742Z" fill="url(#paint7_linear_1001_14555)"/>
<path d="M976.792 374.946L987.979 362.222C989.377 360.684 990.076 358.726 990.076 356.628V352.294C990.076 351.175 988.678 350.616 987.839 351.455L975.394 365.578C974.695 366.417 974.275 367.395 974.275 368.514V373.968C974.415 375.226 975.953 375.785 976.792 374.946Z" fill="url(#paint8_linear_1001_14555)"/>
<path d="M968.402 379.697C968.402 378.719 967.563 378.299 966.444 378.719C965.326 379.278 964.487 380.536 964.487 381.515C964.487 382.494 965.326 382.914 966.444 382.494C967.563 381.935 968.402 380.676 968.402 379.697Z" fill="url(#paint9_linear_1001_14555)"/>
<path d="M1010.77 331.598C1010.77 330.619 1009.93 330.2 1008.81 330.619C1007.69 331.178 1006.86 332.437 1006.86 333.416C1006.86 334.394 1007.69 334.814 1008.81 334.394C1009.93 333.975 1010.77 332.716 1010.77 331.598Z" fill="url(#paint10_linear_1001_14555)"/>
<path d="M1016.08 326.004C1016.08 325.025 1015.25 324.606 1014.13 325.025C1013.01 325.585 1012.17 326.843 1012.17 327.822C1012.17 328.801 1013.01 329.22 1014.13 328.801C1015.25 328.381 1016.08 326.983 1016.08 326.004Z" fill="url(#paint11_linear_1001_14555)"/>
<path d="M1021.4 320.272C1021.4 319.293 1020.56 318.873 1019.44 319.293C1018.32 319.712 1017.48 321.111 1017.48 322.089C1017.48 323.068 1018.32 323.488 1019.44 323.068C1020.56 322.649 1021.4 321.39 1021.4 320.272Z" fill="url(#paint12_linear_1001_14555)"/>
<path d="M1026.15 314.678C1026.15 313.699 1025.31 313.28 1024.19 313.699C1023.08 314.258 1022.24 315.517 1022.24 316.496C1022.24 317.475 1023.08 317.894 1024.19 317.475C1025.31 316.915 1026.15 315.657 1026.15 314.678Z" fill="url(#paint13_linear_1001_14555)"/>
<path d="M696.43 207.148C695.032 198.898 697.409 190.508 703.561 181.978L726.354 150.656L745.511 164.639L723.138 195.402C720.062 199.597 718.663 203.093 718.663 206.169C718.803 209.106 720.201 211.623 722.998 213.72C725.795 215.818 728.731 216.377 731.528 215.538C734.464 214.699 737.401 212.182 740.477 208.127L762.85 177.364L781.727 191.067L758.935 222.39C752.782 230.919 745.511 235.674 737.121 236.932C728.731 238.051 720.341 235.534 711.532 229.102C702.862 222.809 697.828 215.398 696.43 207.148Z" fill="url(#paint14_linear_1001_14555)"/>
<path d="M790.676 197.5L809.833 211.483L768.303 268.394L749.146 254.411L790.676 197.5Z" fill="url(#paint15_linear_1001_14555)"/>
<path d="M813.049 292.304C811.651 284.054 814.028 275.664 820.181 267.135L842.973 235.812L862.13 249.796L839.757 280.559C836.681 284.753 835.282 288.249 835.282 291.326C835.422 294.262 836.821 296.779 839.617 298.876C842.414 300.974 845.35 301.533 848.147 300.694C851.083 299.855 854.02 297.338 857.096 293.283L879.469 262.52L898.346 276.224L875.554 307.546C869.401 316.076 862.13 320.83 853.74 322.088C845.35 323.207 836.96 320.69 828.151 314.258C819.621 307.826 814.448 300.554 813.049 292.304Z" fill="url(#paint16_linear_1001_14555)"/>
<path d="M901.003 365.295L902.262 342.922L881.567 351.172L859.753 335.231L901.283 321.527L901.982 278.879L923.516 294.54L922.817 315.934L942.673 308.523L963.368 323.625L923.516 336.629L922.957 381.375L901.003 365.295Z" fill="url(#paint17_linear_1001_14555)"/>
<path opacity="0.1" d="M891.495 300.832L974.135 208.264C976.512 205.607 980.567 205.188 983.364 207.285L1027.41 238.887C1030.77 241.264 1031.33 246.158 1028.53 249.234L945.889 341.803C943.512 344.46 939.457 344.879 936.66 342.782L892.614 311.04C889.258 308.663 888.698 303.908 891.495 300.832Z" fill="#5C5A8E"/>
<path opacity="0.25" d="M741.57 194.238L824.21 101.67C826.587 99.0133 830.642 98.5938 833.579 100.691L921.113 164.454C924.469 166.831 925.028 171.726 922.232 174.802L839.452 267.37C837.075 270.027 833.019 270.446 830.083 268.349L742.549 204.586C739.332 202.209 738.773 197.455 741.57 194.238Z" fill="#5C5A8E"/>
<g filter="url(#filter0_b_1001_14555)">
<path fill-rule="evenodd" clip-rule="evenodd" d="M737.22 175.034C735.27 178.074 736.007 182.176 738.913 184.451L826.448 248.214C829.384 250.312 833.439 249.892 835.816 247.235L918.457 154.667C921.253 151.591 920.694 146.697 917.338 144.32L874.249 112.881L782.261 215.913L739.053 184.451C736.02 182.176 735.271 178.074 737.22 175.034ZM829.944 80.5565C828.689 79.6603 827.23 79.2237 825.785 79.2246C827.23 79.2237 828.689 79.6604 829.943 80.5565H829.944Z" fill="#BBD5FF" fill-opacity="0.8"/>
</g>
<path d="M830.643 250.172C829.104 250.172 827.426 249.753 826.168 248.634L738.634 184.871C736.816 183.612 735.697 181.655 735.557 179.418C735.278 177.32 735.977 175.083 737.515 173.545L820.155 80.9763C822.812 78.0399 827.147 77.4805 830.363 79.8577L917.897 143.621C919.715 144.879 920.834 146.837 920.974 149.074C921.253 151.172 920.554 153.409 919.016 154.947L836.376 247.515C834.837 249.333 832.74 250.172 830.643 250.172ZM738.354 174.523C737.235 175.782 736.536 177.6 736.816 179.418C736.956 181.235 737.934 182.774 739.333 183.892L826.867 247.655C829.524 249.613 833.16 249.193 835.257 246.816L917.897 154.248C919.016 152.989 919.715 151.172 919.435 149.354C919.296 147.536 918.317 145.998 916.918 144.879L829.384 81.1162C826.727 79.1585 823.092 79.578 820.994 81.9551L738.354 174.523Z" fill="url(#paint18_linear_1001_14555)"/>
<path d="M824.77 216.472L852.177 185.709C853.155 184.73 854.694 184.451 855.812 185.29L868.117 194.239C869.376 195.218 869.656 197.036 868.537 198.294L866.16 200.951L853.994 214.654L846.583 222.904L841.13 228.917C840.151 230.036 838.473 230.176 837.215 229.337L825.189 220.667C823.791 219.688 823.651 217.731 824.77 216.472Z" fill="url(#paint19_linear_1001_14555)"/>
<path d="M836.795 219.828C836.515 219.828 836.096 219.688 835.816 219.409C835.257 218.849 835.257 218.01 835.676 217.451L855.253 195.497C855.812 194.938 856.651 194.938 857.21 195.358C857.77 195.917 857.77 196.756 857.35 197.315L837.774 219.269C837.634 219.688 837.214 219.828 836.795 219.828Z" fill="white"/>
<path d="M860.566 176.482L887.973 145.719C888.952 144.74 890.49 144.461 891.609 145.3L903.914 154.249C905.172 155.228 905.452 157.045 904.333 158.304L901.956 160.961L889.791 174.664L882.38 182.914L876.927 188.927C875.948 190.046 874.27 190.185 873.011 189.346L860.986 180.677C859.727 179.698 859.448 177.74 860.566 176.482Z" fill="url(#paint20_linear_1001_14555)"/>
<path d="M872.731 179.838C872.452 179.838 872.032 179.698 871.753 179.418C871.193 178.859 871.193 178.02 871.613 177.461L891.189 155.507C891.748 154.948 892.587 154.948 893.147 155.367C893.706 155.927 893.706 156.766 893.287 157.325L873.71 179.279C873.431 179.698 873.011 179.838 872.731 179.838Z" fill="white"/>
<g filter="url(#filter1_b_1001_14555)">
<path d="M737.934 174.104L820.575 81.5353C822.952 78.8785 827.007 78.459 829.943 80.5565L874.27 112.858L782.261 215.913L739.053 184.451C735.697 181.934 735.138 177.18 737.934 174.104Z" fill="url(#paint21_linear_1001_14555)" fill-opacity="0.7"/>
</g>
<path d="M782.261 216.753L738.494 184.871C736.676 183.612 735.557 181.655 735.418 179.418C735.138 177.32 735.837 175.083 737.375 173.545L820.015 80.9763C822.672 78.0399 827.007 77.4805 830.223 79.8577L875.109 112.578L782.261 216.753ZM737.934 174.104L738.494 174.523C737.375 175.782 736.676 177.6 736.956 179.418C737.096 181.235 738.074 182.773 739.473 183.892L782.121 214.935L873.151 112.998L829.524 81.1162C826.867 79.1585 823.232 79.578 821.134 81.9551L738.354 174.523L737.934 174.104Z" fill="url(#paint22_linear_1001_14555)"/>
<path d="M836.515 141.798C846.304 150.608 847.702 164.871 838.893 173.68C829.943 182.489 814.142 182.489 804.354 173.68C794.846 164.871 794.986 150.608 803.935 141.798C812.604 132.989 827.007 132.989 836.515 141.798Z" fill="white"/>
<path d="M818.477 179.974C825.888 180.953 833.579 178.855 838.892 173.542C844.066 168.368 845.744 161.237 844.066 154.385C839.032 150.749 832.041 150.609 826.028 153.826C825.888 151.448 824.909 149.071 822.952 147.393C819.176 143.898 813.443 143.898 809.947 147.393C806.451 150.889 806.451 156.482 810.227 159.978C812.185 161.796 814.702 162.635 817.218 162.635C813.863 168.648 814.282 175.36 818.477 179.974Z" fill="#F5F9FE"/>
<path d="M821.833 180.813C820.714 180.813 819.456 180.673 818.337 180.534H818.058L817.918 180.394C813.863 176.059 813.164 169.487 816.1 163.334C813.723 163.195 811.486 162.216 809.808 160.538C807.85 158.72 806.731 156.203 806.731 153.686C806.731 151.169 807.71 148.792 809.528 146.974C813.303 143.199 819.596 143.199 823.511 146.974C825.189 148.512 826.308 150.61 826.727 152.847C832.88 149.911 839.732 150.33 844.626 153.966L844.765 154.106V154.385C846.583 161.796 844.626 168.928 839.452 174.101C834.977 178.436 828.545 180.813 821.833 180.813ZM818.757 179.275C826.168 180.114 833.579 177.877 838.333 173.123C843.087 168.368 844.905 161.796 843.367 154.945C838.753 151.728 832.041 151.449 826.308 154.665L825.329 155.224V154.106C825.189 151.868 824.21 149.771 822.532 148.093C819.036 144.877 813.723 144.877 810.507 148.093C808.969 149.631 808.13 151.728 808.13 153.826C808.13 156.063 809.108 158.161 810.786 159.699C812.464 161.237 814.842 162.216 817.219 162.076H818.477L817.918 163.195C814.702 168.788 815.121 175.08 818.757 179.275Z" fill="#BBD5FF"/>
<path d="M831.901 194.658C831.621 194.658 831.202 194.518 830.922 194.239C830.363 193.679 830.363 192.84 830.922 192.281L860.427 160.679C860.986 160.12 861.825 160.12 862.384 160.679C862.944 161.239 862.944 162.078 862.384 162.637L832.88 194.239C832.6 194.518 832.181 194.658 831.901 194.658Z" fill="white"/>
<g filter="url(#filter2_b_1001_14555)">
<path d="M878.071 264.611L960.712 172.043C963.089 169.386 967.144 168.967 969.94 171.064L1013.99 202.666C1017.34 205.043 1017.9 209.937 1015.11 213.014L932.466 305.582C930.088 308.239 926.033 308.658 923.237 306.561L879.19 274.959C875.834 272.582 875.275 267.688 878.071 264.611Z" fill="url(#paint23_linear_1001_14555)" fill-opacity="0.7"/>
</g>
<path d="M927.431 308.659C925.893 308.659 924.355 308.239 922.957 307.261L878.91 275.659C877.092 274.4 875.974 272.443 875.694 270.205C875.414 268.108 876.113 265.871 877.652 264.193L960.292 171.624C962.949 168.688 967.283 168.268 970.5 170.506L1014.55 202.108C1016.36 203.366 1017.48 205.324 1017.76 207.561C1018.04 209.658 1017.34 211.896 1015.8 213.574L933.165 306.002C931.626 307.68 929.529 308.659 927.431 308.659ZM878.63 265.032C877.512 266.43 876.813 268.108 877.092 269.926C877.232 271.744 878.211 273.282 879.609 274.4L923.656 306.002C926.313 307.82 929.809 307.54 932.046 305.023L1014.69 212.455C1015.8 211.057 1016.5 209.379 1016.22 207.561C1016.08 205.743 1015.11 204.205 1013.71 203.086L969.661 171.624C967.004 169.807 963.508 170.086 961.271 172.603L878.63 265.032Z" fill="url(#paint24_linear_1001_14555)"/>
<path d="M927.431 308.659C925.893 308.659 924.355 308.239 922.957 307.261L878.91 275.659C877.092 274.4 875.974 272.443 875.694 270.205C875.414 268.108 876.113 265.871 877.652 264.193L960.292 171.624C962.949 168.688 967.283 168.268 970.5 170.506L1014.55 202.108C1016.36 203.366 1017.48 205.324 1017.76 207.561C1018.04 209.658 1017.34 211.896 1015.8 213.574L933.165 306.002C931.626 307.68 929.529 308.659 927.431 308.659ZM878.63 265.032C877.512 266.43 876.813 268.108 877.092 269.926C877.232 271.744 878.211 273.282 879.609 274.4L923.656 306.002C926.313 307.82 929.809 307.54 932.046 305.023L1014.69 212.455C1015.8 211.057 1016.5 209.379 1016.22 207.561C1016.08 205.743 1015.11 204.205 1013.71 203.086L969.661 171.624C967.004 169.807 963.508 170.086 961.271 172.603L878.63 265.032Z" fill="url(#paint25_linear_1001_14555)"/>
<path d="M927.431 308.659C925.893 308.659 924.355 308.239 922.957 307.261L878.91 275.659C877.092 274.4 875.974 272.443 875.694 270.205C875.414 268.108 876.113 265.871 877.652 264.193L960.292 171.624C962.949 168.688 967.283 168.268 970.5 170.506L1014.55 202.108C1016.36 203.366 1017.48 205.324 1017.76 207.561C1018.04 209.658 1017.34 211.896 1015.8 213.574L933.165 306.002C931.626 307.68 929.529 308.659 927.431 308.659ZM878.63 265.032C877.512 266.43 876.813 268.108 877.092 269.926C877.232 271.744 878.211 273.282 879.609 274.4L923.656 306.002C926.313 307.82 929.809 307.54 932.046 305.023L1014.69 212.455C1015.8 211.057 1016.5 209.379 1016.22 207.561C1016.08 205.743 1015.11 204.205 1013.71 203.086L969.661 171.624C967.004 169.807 963.508 170.086 961.271 172.603L878.63 265.032Z" fill="url(#paint26_linear_1001_14555)"/>
<path d="M926.173 293.699C924.635 293.699 923.376 292.44 923.376 290.902V254.966C923.376 253.427 924.635 252.169 926.173 252.169H953.72L950.783 231.334C950.643 230.495 950.923 229.656 951.482 229.097C952.042 228.537 952.741 228.118 953.58 228.118H959.872L961.69 203.927C961.83 202.529 962.949 201.41 964.487 201.41H993.991C995.529 201.41 996.788 202.669 996.788 204.207C996.788 205.745 995.529 207.003 993.991 207.003H967.144L965.326 231.194C965.186 232.593 964.067 233.711 962.529 233.711H956.936L959.872 254.546C960.012 255.385 959.732 256.224 959.173 256.783C958.614 257.343 957.915 257.762 957.076 257.762H929.109V290.902C928.97 292.44 927.711 293.699 926.173 293.699Z" fill="white"/>
<path d="M993.991 208.821C996.617 208.821 998.746 206.692 998.746 204.067C998.746 201.441 996.617 199.312 993.991 199.312C991.366 199.312 989.237 201.441 989.237 204.067C989.237 206.692 991.366 208.821 993.991 208.821Z" fill="white"/>
<path d="M931.347 292.578C931.347 295.235 929.249 297.333 926.593 297.333C923.936 297.333 921.838 295.235 921.838 292.578C921.838 289.922 923.936 287.824 926.593 287.824C929.249 287.824 931.347 289.922 931.347 292.578Z" fill="white"/>
<path d="M964.627 210.781C968.333 210.781 971.338 207.776 971.338 204.069C971.338 200.362 968.333 197.357 964.627 197.357C960.92 197.357 957.915 200.362 957.915 204.069C957.915 207.776 960.92 210.781 964.627 210.781Z" fill="#8BEBE3"/>
<path d="M964.627 211.48C960.572 211.48 957.216 208.124 957.216 204.069C957.216 200.014 960.572 196.658 964.627 196.658C968.682 196.658 972.038 200.014 972.038 204.069C972.038 208.124 968.682 211.48 964.627 211.48ZM964.627 198.057C961.271 198.057 958.614 200.713 958.614 204.069C958.614 207.425 961.271 210.082 964.627 210.082C967.983 210.082 970.639 207.425 970.639 204.069C970.639 200.713 967.983 198.057 964.627 198.057Z" fill="#8BEBE3"/>
<path opacity="0.25" d="M865.626 451.99L848.707 440.804C847.448 439.825 845.63 440.104 844.651 441.223L808.155 482.194C806.897 483.592 807.177 485.689 808.715 486.808L825.634 497.994C826.893 498.973 828.711 498.694 829.689 497.575L849.685 475.202L862.13 474.223L858.215 465.693L866.325 456.744C867.304 455.206 867.024 452.969 865.626 451.99Z" fill="#5C5A8E"/>
<path d="M862.55 435.349L845.63 424.163C844.372 423.184 842.554 423.464 841.575 424.582L805.079 465.553C803.821 466.951 804.1 469.049 805.639 470.167L822.558 481.354C823.817 482.333 825.634 482.053 826.613 480.934L846.609 458.561L859.054 457.583L855.139 449.053L863.249 440.104C864.228 438.565 863.948 436.468 862.55 435.349Z" fill="#98ACF8"/>
<path d="M824.096 482.613C823.397 482.613 822.558 482.333 821.859 481.914L804.939 470.727C804.1 470.028 803.541 469.049 803.401 468.071C803.261 466.952 803.681 465.973 804.38 465.134L840.876 424.164C842.135 422.765 844.372 422.486 845.91 423.604L862.83 434.791C863.669 435.35 864.228 436.329 864.368 437.448C864.508 438.566 864.088 439.545 863.389 440.384L855.698 449.054L859.893 458.003L846.749 459.121L826.893 481.355C826.194 482.194 825.215 482.613 824.096 482.613ZM843.673 424.303C842.974 424.303 842.414 424.583 841.855 425.142L805.359 466.113C804.939 466.672 804.66 467.232 804.8 467.931C804.939 468.63 805.219 469.189 805.778 469.609L822.698 480.795C823.677 481.494 825.075 481.355 825.914 480.516L846.05 457.863L857.796 456.884L854.02 448.914L862.41 439.545C862.83 438.986 863.109 438.426 862.969 437.727C862.83 437.028 862.55 436.469 861.991 436.049L845.071 424.863C844.791 424.443 844.232 424.303 843.673 424.303Z" fill="url(#paint27_linear_1001_14555)"/>
<path d="M819.482 470.728C819.202 470.728 818.783 470.588 818.503 470.448C817.944 469.889 817.804 469.05 818.363 468.491L838.919 444.859C839.478 444.3 840.317 444.16 840.876 444.719C841.436 445.279 841.575 446.118 841.016 446.677L820.461 470.308C820.181 470.588 819.762 470.728 819.482 470.728Z" fill="white"/>
<path d="M847.728 432.832L845.351 433.111V430.594C845.351 429.895 844.791 429.336 844.092 429.336C843.393 429.336 842.834 429.895 842.834 430.594V433.391L840.177 433.811C839.478 433.95 839.058 434.51 839.198 435.209C839.338 435.768 839.758 436.188 840.317 436.188H840.457L842.834 435.908V438.285C842.834 438.984 843.393 439.544 844.092 439.544C844.791 439.544 845.351 438.984 845.351 438.285V435.628L848.008 435.209C848.707 435.069 849.126 434.51 848.986 433.811C848.986 433.251 848.427 432.692 847.728 432.832Z" fill="#DA9FF9"/>
<path d="M844.232 440.104C843.253 440.104 842.274 439.265 842.274 438.146V436.608L840.736 436.748C839.618 436.888 838.779 436.189 838.639 435.07C838.639 434.511 838.639 434.091 839.058 433.672C839.338 433.252 839.757 432.973 840.317 432.973L842.414 432.693V430.456C842.414 429.477 843.253 428.498 844.372 428.498C845.351 428.498 846.33 429.337 846.33 430.456V432.134L847.868 431.994C848.427 431.994 848.846 431.994 849.266 432.413C849.685 432.693 849.965 433.112 849.965 433.672C849.965 434.231 849.965 434.651 849.546 435.07C849.266 435.49 848.846 435.769 848.287 435.769L846.19 436.049V438.146C846.19 439.265 845.351 440.104 844.232 440.104ZM843.813 435.07V438.286C843.813 438.566 844.092 438.846 844.372 438.846C844.652 438.846 844.931 438.566 844.931 438.286V434.93L848.147 434.511C848.287 434.511 848.427 434.371 848.427 434.371C848.567 434.231 848.567 434.091 848.567 433.951C848.567 433.812 848.427 433.672 848.427 433.672C848.287 433.532 848.147 433.532 848.008 433.532L844.931 433.951V430.596C844.931 430.316 844.652 430.036 844.372 430.036C844.092 430.036 843.813 430.316 843.813 430.596V434.091L840.596 434.511C840.457 434.511 840.317 434.651 840.317 434.651C840.177 434.79 840.177 434.93 840.177 435.07C840.177 435.35 840.457 435.49 840.596 435.49L843.813 435.07Z" fill="url(#paint28_linear_1001_14555)"/>
<path opacity="0.2" d="M907.855 124.083L924.635 104.646C926.592 102.409 929.808 102.129 932.186 103.807L955.817 121.426C958.474 123.384 958.893 127.159 956.656 129.536L939.876 148.973C937.919 151.21 934.703 151.49 932.325 149.812L908.694 132.193C906.177 130.235 905.757 126.46 907.855 124.083Z" fill="url(#paint29_linear_1001_14555)"/>
<g filter="url(#filter3_b_1001_14555)">
<path d="M907.855 94.1589L924.635 74.7224C926.592 72.4851 929.808 72.2054 932.186 73.8834L955.817 91.5021C958.474 93.4598 958.893 97.2352 956.656 99.6123L939.876 119.049C937.919 121.286 934.703 121.566 932.325 119.888L908.694 102.269C906.177 100.451 905.757 96.6759 907.855 94.1589Z" fill="#5C96F5" fill-opacity="0.75"/>
</g>
<path d="M935.821 121.707C934.563 121.707 933.165 121.287 932.046 120.448L908.415 102.83C907.016 101.851 906.037 100.173 905.898 98.4947C905.758 96.8168 906.317 94.999 907.436 93.7405L924.215 74.3039C926.313 71.787 930.088 71.3675 932.745 73.3251L956.377 90.9438C957.775 91.9227 958.754 93.6006 958.894 95.2786C959.033 96.9566 958.474 98.7744 957.355 100.033L940.576 119.469C939.317 121.008 937.639 121.707 935.821 121.707ZM908.415 94.7193C907.576 95.6981 907.156 97.0964 907.296 98.4947C907.436 99.893 908.135 101.012 909.254 101.851L932.885 119.469C934.982 121.008 937.779 120.728 939.457 118.77L956.237 99.3337C957.076 98.3549 957.495 96.9566 957.355 95.5583C957.216 94.16 956.516 93.0413 955.398 92.2023L931.766 74.5836C929.669 73.0454 926.872 73.3251 925.194 75.2827L908.415 94.7193Z" fill="#5C96F5"/>
<g filter="url(#filter4_b_1001_14555)">
<path d="M923.097 87.4497C920.021 91.0853 920.44 96.5387 924.076 99.615C927.711 102.691 943.512 104.789 943.512 104.789C943.512 104.789 938.898 89.5471 935.262 86.4708C931.627 83.3945 926.173 83.8141 923.097 87.4497ZM932.605 95.42C931.207 97.098 928.69 97.3777 926.872 95.8395C925.194 94.4412 924.915 91.9243 926.453 90.1064C927.991 88.2886 930.368 88.1488 932.186 89.687C933.724 91.2251 934.004 93.7421 932.605 95.42Z" fill="#5C96F5" fill-opacity="0.75"/>
</g>
<path d="M944.491 105.626L943.372 105.486C942.673 105.346 927.292 103.389 923.516 100.173C921.559 98.4946 920.44 96.2573 920.3 93.8802C920.16 91.3632 920.859 88.9861 922.537 87.0284C924.215 85.0708 926.453 83.9522 928.83 83.8123C931.347 83.6725 933.724 84.3717 935.682 86.0496C939.457 89.2657 943.932 104.088 944.211 104.647L944.491 105.626ZM929.669 85.0708C929.389 85.0708 929.249 85.0708 928.97 85.0708C926.872 85.2106 924.915 86.1895 923.516 87.8674C922.118 89.5454 921.419 91.503 921.698 93.6005C921.838 95.698 922.817 97.6556 924.495 99.0539C927.432 101.571 938.898 103.389 942.533 103.948C941.415 100.452 937.779 89.4056 934.843 87.0284C933.304 85.77 931.487 85.0708 929.669 85.0708ZM929.529 97.6556C928.41 97.6556 927.292 97.2361 926.453 96.537C924.495 94.859 924.215 91.9225 925.893 89.8251C927.571 87.8674 930.508 87.5878 932.605 89.2657C933.584 90.1047 934.143 91.2234 934.283 92.4819C934.423 93.7403 934.004 94.9988 933.165 95.9776C932.326 96.9565 931.207 97.5158 929.949 97.6556C929.669 97.6556 929.669 97.6556 929.529 97.6556ZM929.529 89.5454C928.55 89.5454 927.711 89.9649 927.012 90.6641C925.893 92.0624 926.033 94.1598 927.432 95.4183C928.83 96.537 930.927 96.3971 932.186 94.9988C933.304 93.6005 933.165 91.503 931.766 90.2446C931.067 89.8251 930.228 89.5454 929.529 89.5454Z" fill="white"/>
<path opacity="0.25" d="M660.494 57.3855L677.273 37.9489C679.231 35.7116 682.447 35.432 684.824 37.1099L708.456 54.7287C711.113 56.6863 711.532 60.4618 709.295 62.8389L692.515 82.2754C690.557 84.5127 687.341 84.7924 684.964 83.1144L661.333 65.4957C658.816 63.6779 658.396 59.9024 660.494 57.3855Z" fill="#5C5A8E"/>
<g filter="url(#filter5_b_1001_14555)">
<path d="M659.515 41.1648L676.295 21.7282C678.252 19.4909 681.468 19.2113 683.846 20.8892L707.477 38.508C710.134 40.4656 710.553 44.2411 708.316 46.6182L691.536 66.0547C689.579 68.292 686.362 68.5717 683.985 66.8937L660.354 49.275C657.697 47.3174 657.278 43.5419 659.515 41.1648Z" fill="url(#paint30_linear_1001_14555)" fill-opacity="0.8"/>
</g>
<path d="M687.341 68.7126C686.083 68.7126 684.685 68.2931 683.566 67.4541L659.934 49.8354C658.536 48.8565 657.557 47.1786 657.417 45.5006C657.278 43.8226 657.837 42.0048 658.956 40.7463L675.735 21.3098C677.833 18.7928 681.608 18.3733 684.265 20.331L707.897 37.9497C709.295 38.9285 710.274 40.6065 710.414 42.2845C710.553 43.9625 709.994 45.7803 708.875 47.0387L692.096 66.4753C690.837 67.8736 689.159 68.7126 687.341 68.7126ZM680.49 20.4708C679.091 20.4708 677.693 21.0301 676.714 22.1488L659.934 41.5853C659.095 42.5641 658.676 43.9625 658.816 45.3608C658.956 46.7591 659.655 47.8777 660.773 48.7167L684.405 66.3355C686.502 67.8736 689.299 67.5939 690.977 65.6363L707.757 46.1997C708.596 45.2209 709.015 43.8226 708.875 42.4243C708.736 41.026 708.036 39.9073 706.918 39.0684L683.286 21.4496C682.447 20.8903 681.468 20.4708 680.49 20.4708Z" fill="#8BEBE3"/>
<path d="M683.846 53.7522C689.251 53.7522 693.634 49.3698 693.634 43.964C693.634 38.5581 689.251 34.1758 683.846 34.1758C678.44 34.1758 674.057 38.5581 674.057 43.964C674.057 49.3698 678.44 53.7522 683.846 53.7522Z" fill="white"/>
<path d="M683.846 54.3126C678.112 54.3126 673.358 49.5583 673.358 43.8252C673.358 38.0922 678.112 33.3379 683.846 33.3379C689.579 33.3379 694.333 38.0922 694.333 43.8252C694.333 49.5583 689.718 54.3126 683.846 54.3126ZM683.846 34.876C678.812 34.876 674.756 38.9311 674.756 43.9651C674.756 48.999 678.812 53.0541 683.846 53.0541C688.879 53.0541 692.935 48.999 692.935 43.9651C692.935 38.9311 688.879 34.876 683.846 34.876Z" fill="#8BEBE3"/>
<path d="M690.278 45.3598H683.986C683.706 45.3598 683.426 45.22 683.147 45.0801L678.952 41.864C678.392 41.4445 678.253 40.4657 678.672 39.9064C679.092 39.3471 680.07 39.2072 680.63 39.6267L684.405 42.5632H690.278C691.117 42.5632 691.676 43.1225 691.676 43.9615C691.676 44.8005 690.977 45.3598 690.278 45.3598Z" fill="#8BEBE3"/>
<path opacity="0.3" d="M618.544 333.134L635.324 313.697C637.282 311.46 640.498 311.18 642.875 312.858L666.506 330.477C669.163 332.434 669.583 336.21 667.345 338.587L650.566 358.023C648.608 360.261 645.392 360.54 643.015 358.862L619.383 341.244C616.866 339.286 616.447 335.511 618.544 333.134Z" fill="#5C5A8E"/>
<g filter="url(#filter6_b_1001_14555)">
<path d="M615.468 324.743L632.248 305.306C634.205 303.069 637.422 302.789 639.799 304.467L663.43 322.086C666.087 324.044 666.506 327.819 664.269 330.196L647.489 349.633C645.532 351.87 642.316 352.15 639.939 350.472L616.307 332.853C613.79 331.035 613.371 327.26 615.468 324.743Z" fill="url(#paint31_linear_1001_14555)" fill-opacity="0.8"/>
</g>
<path d="M643.294 352.291C642.036 352.291 640.638 351.871 639.519 351.032L615.888 333.413C614.489 332.435 613.51 330.757 613.371 329.079C613.231 327.401 613.79 325.583 614.909 324.324L631.688 304.888C633.786 302.371 637.561 301.951 640.218 303.909L663.85 321.528C665.248 322.507 666.227 324.185 666.367 325.863C666.506 327.541 665.947 329.358 664.829 330.617L648.049 350.053C646.93 351.592 645.112 352.291 643.294 352.291ZM636.443 304.189C635.044 304.189 633.646 304.748 632.667 305.867L615.888 325.303C615.049 326.282 614.629 327.68 614.769 329.079C614.909 330.477 615.608 331.596 616.727 332.435L640.358 350.053C642.456 351.592 645.252 351.312 646.93 349.354L663.71 329.918C664.549 328.939 664.968 327.541 664.829 326.142C664.689 324.744 663.99 323.625 662.871 322.786L639.239 305.168C638.4 304.468 637.422 304.189 636.443 304.189Z" fill="url(#paint32_linear_1001_14555)"/>
<path d="M625.329 331.107L639.871 314.188L652.876 323.976L638.473 340.895L625.329 331.107Z" fill="white"/>
<g filter="url(#filter7_b_1001_14555)">
<path d="M625.329 331.805C625.049 331.805 624.77 331.525 624.63 331.246C624.49 330.826 624.77 330.547 625.189 330.407L640.011 327.051L639.172 314.326C639.172 313.907 639.452 313.627 639.871 313.627C640.291 313.627 640.571 313.907 640.571 314.326L641.549 327.61C641.549 327.89 641.41 328.309 640.99 328.309L625.469 331.805C625.469 331.805 625.469 331.805 625.329 331.805Z" fill="url(#paint33_linear_1001_14555)" fill-opacity="0.8"/>
</g>
<path opacity="0.3" d="M711.253 302.509L734.465 275.662C736.422 273.425 739.638 273.145 742.015 274.823L774.456 298.874C777.113 300.831 777.533 304.607 775.295 306.984L752.083 333.832C750.126 336.069 746.91 336.349 744.532 334.671L712.231 310.759C709.575 308.802 709.155 305.026 711.253 302.509Z" fill="#5C5A8E"/>
<g filter="url(#filter8_b_1001_14555)">
<path d="M711.253 295.236L736.562 265.312C738.52 263.075 741.736 262.795 744.113 264.473L776.554 288.524C779.211 290.482 779.63 294.257 777.393 296.634L752.083 326.558C750.126 328.796 746.91 329.075 744.532 327.397L712.231 303.346C709.575 301.389 709.155 297.613 711.253 295.236Z" fill="url(#paint34_linear_1001_14555)" fill-opacity="0.8"/>
</g>
<path d="M747.888 329.216C746.63 329.216 745.232 328.797 744.113 327.958L711.672 303.907C710.274 302.928 709.295 301.25 709.155 299.572C709.015 297.894 709.575 296.076 710.693 294.818L736.003 264.894C738.1 262.377 741.876 261.957 744.532 263.915L776.973 287.966C778.372 288.945 779.35 290.623 779.49 292.301C779.63 293.979 779.071 295.796 777.952 297.055L752.643 326.979C751.384 328.377 749.706 329.216 747.888 329.216ZM740.897 264.055C739.499 264.055 738.1 264.614 737.121 265.733L711.812 295.657C710.973 296.635 710.553 298.034 710.693 299.432C710.833 300.83 711.532 301.949 712.651 302.788L745.092 326.839C747.189 328.377 749.986 328.098 751.664 326.14L776.973 296.216C777.812 295.237 778.232 293.839 778.092 292.441C777.952 291.042 777.253 289.924 776.134 289.085L743.693 265.034C742.854 264.334 741.876 264.055 740.897 264.055Z" fill="url(#paint35_linear_1001_14555)"/>
<path d="M755.02 306.84C754.88 306.98 754.74 307.119 754.46 307.119C753.901 307.259 740.477 311.874 731.947 303.344C729.011 300.408 729.011 295.513 731.947 292.577C733.765 290.759 736.142 290.06 738.519 290.479C738.1 288.102 738.939 285.725 740.617 283.907C743.553 280.971 748.447 280.971 751.384 283.907C759.914 292.437 755.439 305.861 755.159 306.42C755.299 306.56 755.159 306.7 755.02 306.84Z" fill="white"/>
<path opacity="0.25" d="M743.833 380.112L816.825 297.471C819.202 294.814 823.257 294.255 826.194 296.492L856.258 318.865C859.614 321.243 860.033 325.997 857.376 329.073L838.08 351.027L820.601 370.883L795.012 399.828L784.384 411.713C782.007 414.37 777.952 414.93 775.016 412.692L744.952 390.319C741.596 387.942 741.176 383.188 743.833 380.112Z" fill="#5C5A8E"/>
<g filter="url(#filter9_b_1001_14555)">
<path d="M739.638 366.967L812.63 284.327C815.007 281.67 819.062 281.111 821.999 283.348L852.063 305.721C855.419 308.098 855.838 312.852 853.181 315.929L833.885 337.882L816.406 357.738L790.817 386.683L780.189 398.569C777.812 401.226 773.757 401.785 770.821 399.548L740.757 377.175C737.401 374.798 736.842 370.043 739.638 366.967Z" fill="url(#paint36_linear_1001_14555)" fill-opacity="0.8"/>
</g>
<path d="M775.016 401.647C773.478 401.647 771.8 401.087 770.401 400.108L740.338 377.735C738.66 376.477 737.541 374.519 737.261 372.422C736.982 370.324 737.681 368.087 739.079 366.549L812.071 283.909C814.728 280.832 819.202 280.413 822.418 282.79L852.482 305.163C854.16 306.421 855.279 308.379 855.558 310.477C855.838 312.574 855.139 314.811 853.741 316.35L780.749 398.99C779.211 400.808 777.113 401.647 775.016 401.647ZM817.804 282.65C816.126 282.65 814.308 283.349 813.05 284.748L740.198 367.388C739.079 368.786 738.52 370.464 738.66 372.142C738.799 373.96 739.778 375.498 741.176 376.477L771.24 398.85C773.897 400.808 777.533 400.388 779.77 398.011L852.762 315.371C853.881 313.972 854.44 312.294 854.3 310.616C854.16 308.799 853.181 307.26 851.783 306.282L821.719 283.909C820.461 283.07 819.202 282.65 817.804 282.65Z" fill="url(#paint37_linear_1001_14555)"/>
<path d="M769.283 374.799C768.583 374.799 768.024 374.519 767.465 374.1C766.346 373.121 766.206 371.303 767.185 370.185L810.253 321.383C811.232 320.265 813.05 320.125 814.168 321.104C815.287 322.083 815.427 323.9 814.448 325.019L771.38 373.82C770.821 374.519 769.982 374.799 769.283 374.799Z" fill="white"/>
<path d="M838.219 310.477C837.38 309.778 835.982 309.778 835.283 310.617L832.206 313.973C832.206 313.833 832.206 313.833 832.206 313.693V313.553C832.206 313.413 832.206 313.413 832.206 313.273C832.206 313.273 832.206 313.273 832.206 313.134L830.109 305.303C829.829 304.184 828.711 303.485 827.592 303.765C826.473 304.045 825.774 305.163 826.054 306.282L826.613 308.379L817.524 301.667C816.545 300.968 815.287 301.108 814.588 302.087C813.889 303.066 814.028 304.324 815.007 305.023L823.817 311.595H821.859C820.74 311.595 819.761 312.574 819.761 313.693C819.761 314.812 820.74 315.79 821.859 315.79H830.249H830.389C830.528 315.79 830.668 315.79 830.668 315.79H830.808L827.732 319.286C827.033 320.125 827.033 321.523 827.872 322.223C828.291 322.642 828.711 322.782 829.27 322.782C829.829 322.782 830.389 322.502 830.808 322.083L838.359 313.413C839.198 312.574 839.198 311.176 838.219 310.477Z" fill="white"/>
<path opacity="0.3" d="M990.915 293L1022.94 257.203C1023.92 256.225 1025.45 255.945 1026.57 256.784L1043.63 269.089C1044.89 270.068 1045.17 271.886 1044.05 273.144L1012.03 308.941C1011.05 309.92 1009.51 310.199 1008.39 309.36L991.334 297.055C990.076 296.076 989.936 294.119 990.915 293Z" fill="#5C5A8E"/>
<g filter="url(#filter10_b_1001_14555)">
<path d="M991.195 280.416L1012.31 256.785L1010.77 248.395L1018.88 249.374L1023.22 244.619C1024.19 243.641 1025.73 243.361 1026.85 244.2L1043.91 256.505C1045.17 257.484 1045.45 259.302 1044.33 260.56L1012.31 296.357C1011.33 297.336 1009.79 297.615 1008.67 296.776L991.614 284.471C990.356 283.492 990.076 281.675 991.195 280.416Z" fill="#5C96F5" fill-opacity="0.75"/>
</g>
<path d="M1010.35 297.898C1009.65 297.898 1008.95 297.618 1008.39 297.199L991.334 284.894C990.495 284.334 990.076 283.495 989.936 282.516C989.796 281.538 990.076 280.559 990.775 279.86L1011.61 256.508L1009.93 247.559L1018.6 248.677L1022.66 244.203C1023.78 242.944 1025.73 242.664 1027.13 243.643L1044.19 255.948C1045.03 256.508 1045.45 257.347 1045.59 258.326C1045.73 259.304 1045.45 260.283 1044.75 260.982L1012.87 296.779C1012.17 297.618 1011.19 297.898 1010.35 297.898ZM1011.61 249.237L1013.01 257.067L991.754 280.978C991.334 281.398 991.195 281.957 991.195 282.516C991.195 283.076 991.614 283.635 992.034 283.915L1009.09 296.22C1009.93 296.779 1011.05 296.639 1011.75 295.94L1043.77 260.143C1044.19 259.724 1044.33 259.165 1044.33 258.605C1044.33 258.046 1043.91 257.487 1043.49 257.207L1026.43 244.902C1025.59 244.342 1024.47 244.482 1023.78 245.181L1019.3 250.215L1011.61 249.237Z" fill="#5C96F5"/>
<g filter="url(#filter11_b_1001_14555)">
<path d="M1021.96 267.554C1023.36 268.812 1023.22 271.05 1021.68 272.728C1020.14 274.406 1017.9 274.825 1016.5 273.567C1015.11 272.308 1015.25 270.071 1016.78 268.393C1018.32 266.715 1020.7 266.296 1021.96 267.554Z" fill="#5C96F5" fill-opacity="0.75"/>
</g>
<path d="M1018.46 274.964C1017.62 274.964 1016.78 274.685 1016.08 274.125C1014.41 272.727 1014.55 269.93 1016.36 267.973C1017.2 266.994 1018.32 266.435 1019.44 266.295C1020.56 266.155 1021.68 266.435 1022.52 267.134C1024.2 268.532 1024.06 271.329 1022.24 273.286C1021.26 274.405 1019.86 274.964 1018.46 274.964ZM1020.14 267.553C1020 267.553 1019.86 267.553 1019.72 267.553C1018.88 267.693 1018.18 268.113 1017.48 268.812C1016.22 270.21 1016.08 272.028 1017.2 273.007C1018.18 273.985 1020.14 273.566 1021.4 272.168C1022.66 270.769 1022.8 268.952 1021.68 267.973C1021.12 267.693 1020.7 267.553 1020.14 267.553Z" fill="white"/>
<g filter="url(#filter12_b_1001_14555)">
<path d="M1030.21 258.46C1031.61 259.719 1031.47 261.956 1029.93 263.634C1028.39 265.312 1026.15 265.731 1024.75 264.473C1023.36 263.215 1023.5 260.977 1025.03 259.299C1026.57 257.621 1028.81 257.202 1030.21 258.46Z" fill="#5C96F5" fill-opacity="0.75"/>
</g>
<path d="M1026.71 265.872C1025.87 265.872 1025.03 265.592 1024.33 265.033C1022.66 263.635 1022.8 260.838 1024.61 258.88C1026.43 256.923 1029.09 256.503 1030.77 257.902C1032.44 259.3 1032.3 262.096 1030.49 264.054C1029.65 265.033 1028.53 265.592 1027.41 265.732C1027.13 265.872 1026.99 265.872 1026.71 265.872ZM1028.25 258.461C1027.41 258.461 1026.29 258.88 1025.59 259.719C1024.33 261.118 1024.19 262.935 1025.31 263.914C1025.73 264.334 1026.43 264.474 1027.27 264.334C1028.11 264.194 1028.81 263.774 1029.51 263.075C1030.77 261.677 1030.91 259.859 1029.79 258.88C1029.37 258.601 1028.81 258.461 1028.25 258.461Z" fill="white"/>
<g filter="url(#filter13_b_1001_14555)">
<path d="M1013.43 276.923C1014.83 278.182 1014.69 280.419 1013.15 282.097C1011.61 283.775 1009.37 284.194 1007.97 282.936C1006.58 281.677 1006.72 279.44 1008.25 277.762C1009.79 276.084 1012.17 275.804 1013.43 276.923Z" fill="#5C96F5" fill-opacity="0.75"/>
</g>
<path d="M1009.93 284.333C1009.09 284.333 1008.25 284.054 1007.55 283.494C1006.72 282.795 1006.3 281.677 1006.44 280.558C1006.44 279.439 1007 278.321 1007.83 277.342C1008.67 276.363 1009.79 275.804 1010.91 275.664C1012.03 275.524 1013.15 275.804 1013.99 276.503C1014.83 277.202 1015.25 278.321 1015.11 279.439C1015.11 280.558 1014.55 281.677 1013.71 282.655C1012.59 283.774 1011.19 284.333 1009.93 284.333ZM1011.47 276.922C1011.33 276.922 1011.19 276.922 1011.05 276.922C1010.21 277.062 1009.51 277.482 1008.81 278.181C1008.25 278.88 1007.83 279.719 1007.83 280.558C1007.83 281.257 1007.97 281.956 1008.53 282.376C1009.51 283.355 1011.47 282.935 1012.73 281.537C1013.29 280.838 1013.71 279.999 1013.71 279.16C1013.71 278.46 1013.57 277.761 1013.01 277.342C1012.59 277.062 1012.17 276.922 1011.47 276.922Z" fill="white"/>
<path d="M567.506 301.672L579.531 306.426L587.781 296.498L586.942 309.502L598.968 314.257L586.383 317.473L585.544 330.337L578.692 319.43L566.108 322.507L574.497 312.579L567.506 301.672Z" fill="#BBD5FF"/>
<path d="M586.104 332.574L578.273 320.269L564.15 323.904L573.519 312.718L565.688 300.413L579.252 305.866L588.62 294.68L587.642 309.222L601.205 314.676L587.082 318.311L586.104 332.574ZM578.972 318.591L584.985 328.099L585.684 316.773L596.591 313.976L586.104 309.781L586.803 298.595L579.531 307.265L569.044 303.07L575.057 312.578L567.786 321.248L578.972 318.591Z" fill="#BBD5FF"/>
<path d="M877.791 8.02611L889.677 12.9202L898.067 2.99219L897.088 15.8567L909.113 20.6109L896.668 23.827L895.829 36.6915L888.838 25.7847L876.393 29.0008L884.643 19.0728L877.791 8.02611Z" fill="#BBD5FF"/>
<path d="M896.389 38.9286L888.558 26.6235L874.435 30.1193L883.804 18.9328L875.974 6.62761L889.537 12.081L898.906 0.894531L897.927 15.437L911.491 20.8904L897.368 24.526L896.389 38.9286ZM889.258 24.9455L895.27 34.454L895.969 23.1277L906.876 20.3311L896.389 16.1361L897.088 4.80981L889.817 13.4793L879.33 9.28441L885.342 18.7929L878.071 27.4625L889.258 24.9455Z" fill="#BBD5FF"/>
<path d="M1121.66 158.064L1133.68 162.819L1141.93 152.891L1141.09 165.755L1152.98 170.649L1140.53 173.725L1139.7 186.73L1132.7 175.683L1120.26 178.899L1128.51 168.971L1121.66 158.064Z" fill="#BBD5FF"/>
<path d="M1140.25 188.826L1132.42 176.521L1118.3 180.156L1127.67 168.97L1119.84 156.665L1133.4 162.118L1142.77 150.932L1141.79 165.474L1155.36 170.928L1141.23 174.563L1140.25 188.826ZM1133.12 174.983L1139.14 184.491L1139.84 173.165L1150.74 170.368L1140.25 166.173L1140.95 154.847L1133.68 163.516L1123.2 159.322L1129.21 168.83L1121.94 177.5L1133.12 174.983Z" fill="#BBD5FF"/>
<path d="M949.525 472.403L961.55 477.297L969.8 467.369L968.962 480.234L980.987 484.988L968.402 488.204L967.563 501.068L960.711 490.162L948.127 493.378L956.377 483.45L949.525 472.403Z" fill="#BBD5FF"/>
<path d="M968.123 503.304L960.292 490.999L946.169 494.635L955.538 483.448L947.707 471.143L961.271 476.597L970.64 465.41L969.661 479.953L983.224 485.406L969.101 489.042L968.123 503.304ZM960.991 489.321L967.004 498.83L967.703 487.503L978.61 484.707L968.123 480.512L968.822 469.186L961.551 477.855L951.063 473.66L957.076 483.169L949.805 491.838L960.991 489.321Z" fill="#BBD5FF"/>
<path d="M567.506 49.1366L579.531 53.8909L587.782 43.9629L586.943 56.9672L598.968 61.7215L586.383 64.9376L585.544 77.8021L578.692 66.8952L566.108 69.9715L574.498 60.0435L567.506 49.1366Z" fill="#BBD5FF"/>
<path d="M586.104 80.0388L578.273 67.7337L564.15 71.3693L573.519 60.1828L565.688 47.8776L579.252 53.331L588.62 42.1445L587.642 56.687L601.205 62.1404L587.082 65.776L586.104 80.0388ZM578.972 66.0557L584.985 75.5642L585.684 64.2379L596.591 61.4412L586.104 57.2463L586.803 45.92L579.531 54.5895L569.044 50.3946L575.057 59.9031L567.786 68.5726L578.972 66.0557Z" fill="#BBD5FF"/>
<path opacity="0.1" d="M476.336 266.991L573.519 156.385C575.896 153.728 579.951 153.309 582.748 155.406L626.794 187.008C630.15 189.385 630.71 194.279 627.913 197.355L530.73 307.962C528.353 310.619 524.298 311.038 521.501 308.941L477.455 277.339C474.099 274.962 473.539 270.068 476.336 266.991Z" fill="#5C5A8E"/>
<g filter="url(#filter14_b_1001_14555)">
<path d="M501.506 215.532L598.688 104.926C601.065 102.269 605.121 101.85 607.917 103.947L651.964 135.549C655.32 137.926 655.879 142.82 653.083 145.896L555.9 256.503C553.523 259.16 549.468 259.579 546.671 257.482L502.624 225.88C499.268 223.503 498.709 218.609 501.506 215.532Z" fill="#5C96F5" fill-opacity="0.75"/>
</g>
<path d="M550.866 259.58C549.328 259.58 547.79 259.161 546.391 258.182L502.345 226.58C500.527 225.321 499.408 223.364 499.128 221.126C498.849 219.029 499.548 216.792 501.086 215.114L598.129 104.507C600.786 101.571 605.121 101.151 608.337 103.388L652.384 134.99C654.201 136.249 655.32 138.206 655.6 140.444C655.879 142.541 655.18 144.779 653.642 146.457L556.599 256.923C555.061 258.601 552.963 259.58 550.866 259.58ZM603.862 103.388C602.184 103.388 600.366 104.088 599.108 105.486L501.925 216.093C500.806 217.491 500.107 219.169 500.387 220.987C500.527 222.804 501.506 224.343 502.904 225.461L547.091 256.923C549.747 258.741 553.243 258.461 555.48 255.944L652.663 145.338C653.922 143.94 654.481 142.262 654.201 140.444C654.062 138.626 653.083 137.088 651.684 135.969L607.638 104.507C606.519 103.808 605.26 103.388 603.862 103.388Z" fill="#5C96F5"/>
<path d="M519.124 214.693L574.078 152.189C576.035 150.091 579.252 149.672 581.489 151.35L607.358 169.808C610.014 171.765 610.434 175.541 608.336 178.058L553.383 240.562C551.425 242.66 548.209 243.079 545.972 241.401L520.103 222.943C517.306 220.986 516.887 217.071 519.124 214.693Z" fill="#BBD5FF"/>
<path d="M549.048 243.219C547.79 243.219 546.531 242.799 545.412 242.1L519.544 223.642C518.145 222.663 517.167 220.985 517.027 219.307C516.887 217.49 517.446 215.812 518.565 214.413L573.519 151.909C575.616 149.532 579.252 149.112 581.908 150.93L607.777 169.388C609.176 170.367 610.154 172.044 610.294 173.722C610.434 175.54 609.875 177.218 608.756 178.617L553.802 241.121C552.544 242.38 550.866 243.219 549.048 243.219ZM578.273 150.93C576.875 150.93 575.616 151.489 574.637 152.608L519.684 215.113C518.705 216.091 518.285 217.49 518.565 218.888C518.705 220.286 519.404 221.545 520.523 222.244L546.391 240.702C548.489 242.24 551.285 241.82 552.963 240.002L607.917 177.498C608.896 176.519 609.315 175.121 609.036 173.722C608.896 172.324 608.197 171.066 607.078 170.367L581.209 151.909C580.23 151.21 579.252 150.93 578.273 150.93Z" fill="white"/>
<path d="M611.803 121.491L607.198 122.105V117.09C607.198 115.76 606.174 114.736 604.844 114.736C603.513 114.736 602.49 115.76 602.49 117.09V122.719L597.271 123.435C595.94 123.64 595.019 124.766 595.224 126.096C595.429 127.324 596.452 128.143 597.578 128.143C597.68 128.143 597.782 128.143 597.885 128.143L602.49 127.529V132.339C602.49 133.669 603.513 134.693 604.844 134.693C606.174 134.693 607.198 133.669 607.198 132.339V126.915L612.417 126.198C613.747 125.994 614.668 124.868 614.464 123.538C614.361 122.207 613.133 121.286 611.803 121.491Z" fill="white"/>
<path d="M574.917 196.377C581.558 196.377 586.942 190.993 586.942 184.352C586.942 177.71 581.558 172.326 574.917 172.326C568.275 172.326 562.891 177.71 562.891 184.352C562.891 190.993 568.275 196.377 574.917 196.377Z" fill="#BBD5FF"/>
<path d="M574.917 197.076C567.925 197.076 562.192 191.343 562.192 184.352C562.192 177.36 567.925 171.627 574.917 171.627C581.908 171.627 587.642 177.36 587.642 184.352C587.502 191.343 581.908 197.076 574.917 197.076ZM574.917 173.165C568.764 173.165 563.591 178.199 563.591 184.491C563.591 190.784 568.625 195.818 574.917 195.818C581.209 195.818 586.243 190.784 586.243 184.491C586.243 178.199 581.069 173.165 574.917 173.165Z" fill="white"/>
<path d="M556.816 220.166C563.026 217.812 566.151 210.869 563.797 204.659C561.443 198.449 554.5 195.324 548.29 197.678C542.08 200.033 538.955 206.975 541.309 213.185C543.664 219.395 550.606 222.52 556.816 220.166Z" fill="#BBD5FF"/>
<path d="M552.544 221.543C545.553 221.543 539.819 215.81 539.819 208.818C539.819 201.827 545.553 196.094 552.544 196.094C559.536 196.094 565.269 201.827 565.269 208.818C565.129 215.81 559.396 221.543 552.544 221.543ZM552.544 197.632C546.392 197.632 541.218 202.666 541.218 208.958C541.218 215.111 546.252 220.285 552.544 220.285C558.837 220.285 563.87 215.251 563.87 208.958C563.731 202.666 558.697 197.632 552.544 197.632Z" fill="white"/>
<path d="M577.993 189.944C577.154 189.944 576.595 189.385 576.595 188.546V181.974L570.023 183.233C569.324 183.372 568.485 182.953 568.345 182.114C568.205 181.415 568.624 180.576 569.463 180.436L577.713 178.758C578.133 178.618 578.552 178.758 578.832 179.038C579.112 179.317 579.391 179.737 579.391 180.156V188.546C579.391 189.385 578.692 189.944 577.993 189.944Z" fill="white"/>
<path d="M549.468 203.369C550.307 203.369 550.866 203.928 550.866 204.767V211.34L557.438 210.081C558.137 209.941 558.976 210.361 559.116 211.2C559.256 211.899 558.836 212.738 557.997 212.878L549.747 214.556C549.328 214.695 548.908 214.556 548.629 214.276C548.349 213.996 548.069 213.577 548.069 213.157V204.767C548.069 203.928 548.769 203.369 549.468 203.369Z" fill="white"/>
<path opacity="0.2" d="M1006.16 449.052L1035.8 414.094C1038.04 411.437 1041.95 411.018 1044.61 413.115L1082.5 441.221C1085.58 443.458 1086 447.933 1083.62 450.73L1053.98 485.688C1051.74 488.344 1047.83 488.764 1045.17 486.666L1007.28 458.56C1004.06 456.323 1003.64 451.848 1006.16 449.052Z" fill="#5C5A8E"/>
<g filter="url(#filter15_b_1001_14555)">
<path d="M995.53 427.374L1025.17 392.416C1027.41 389.759 1031.33 389.34 1033.98 391.437L1071.88 419.543C1074.95 421.781 1075.37 426.255 1073 429.052L1043.35 464.01C1041.11 466.667 1037.2 467.086 1034.54 464.989L996.648 436.883C993.432 434.645 993.013 430.171 995.53 427.374Z" fill="url(#paint38_linear_1001_14555)" fill-opacity="0.8"/>
</g>
<path d="M1038.32 466.947C1036.78 466.947 1035.24 466.527 1033.98 465.548L996.089 437.442C994.411 436.184 993.432 434.366 993.153 432.408C992.873 430.451 993.572 428.353 994.831 426.955L1024.47 391.997C1026.99 389.201 1031.19 388.641 1034.26 390.879L1072.16 418.985C1073.84 420.243 1074.81 422.061 1075.09 424.019C1075.37 425.976 1074.67 428.074 1073.42 429.612L1043.77 464.57C1042.37 466.108 1040.42 466.947 1038.32 466.947ZM1030.07 390.739C1028.39 390.739 1026.71 391.438 1025.59 392.696L995.949 427.654C994.831 428.913 994.411 430.451 994.551 432.129C994.691 433.807 995.53 435.205 996.928 436.184L1034.82 464.29C1037.2 466.108 1040.7 465.688 1042.79 463.451L1072.44 428.493C1073.56 427.235 1073.98 425.697 1073.84 424.019C1073.7 422.341 1072.86 420.942 1071.46 419.963L1033.56 391.857C1032.45 391.158 1031.33 390.739 1030.07 390.739Z" fill="url(#paint39_linear_1001_14555)"/>
<g filter="url(#filter16_b_1001_14555)">
<path d="M1038.12 447.1C1048.55 444.883 1055.2 434.636 1052.98 424.212C1050.77 413.788 1040.52 407.135 1030.09 409.352C1019.67 411.568 1013.02 421.815 1015.23 432.239C1017.45 442.663 1027.7 449.316 1038.12 447.1Z" fill="url(#paint40_linear_1001_14555)" fill-opacity="0.8"/>
</g>
<path d="M1034.12 448.212C1023.08 448.212 1014.13 439.263 1014.13 428.217C1014.13 417.17 1023.08 408.221 1034.12 408.221C1045.17 408.221 1054.12 417.17 1054.12 428.217C1054.26 439.263 1045.31 448.212 1034.12 448.212ZM1034.12 409.479C1023.78 409.479 1015.53 417.869 1015.53 428.077C1015.53 438.424 1023.92 446.674 1034.12 446.674C1044.47 446.674 1052.72 438.284 1052.72 428.077C1052.86 417.869 1044.47 409.479 1034.12 409.479Z" fill="white"/>
<path d="M1040.97 419.685L1023.92 424.299C1022.94 424.579 1022.52 425.838 1023.36 426.677L1035.8 439.122C1036.5 439.821 1037.9 439.541 1038.18 438.562L1042.79 421.503C1043.07 420.384 1042.09 419.405 1040.97 419.685Z" fill="white"/>
<path opacity="0.2" d="M643.155 440.101L678.252 398.851C680.49 396.334 684.125 395.914 686.782 397.872L713.63 417.868C716.566 420.105 717.126 424.3 714.609 427.097L679.511 468.347C677.274 470.864 673.638 471.283 670.981 469.326L644.134 449.33C641.197 447.093 640.638 442.898 643.155 440.101Z" fill="#5C5A8E"/>
<g filter="url(#filter17_b_1001_14555)">
<path d="M639.1 417.031L674.198 375.78C676.435 373.264 680.07 372.844 682.727 374.802L709.575 394.798C712.511 397.035 713.071 401.23 710.554 404.026L675.456 445.277C673.219 447.794 669.583 448.213 666.926 446.255L640.079 426.26C637.142 424.162 636.723 419.827 639.1 417.031Z" fill="#5C96F5" fill-opacity="0.75"/>
</g>
<path d="M670.702 448.214C669.303 448.214 667.765 447.794 666.507 446.816L639.659 426.82C638.121 425.701 637.002 423.883 636.862 421.926C636.583 419.968 637.282 418.01 638.54 416.612L673.638 375.362C676.015 372.565 680.21 372.146 683.147 374.243L709.994 394.239C711.532 395.358 712.651 397.175 712.791 399.133C713.071 401.091 712.371 403.048 711.113 404.447L676.015 445.697C674.757 447.375 672.799 448.214 670.702 448.214ZM679.092 374.383C677.553 374.383 675.875 375.082 674.757 376.341L639.659 417.591C638.68 418.849 638.121 420.387 638.261 421.926C638.401 423.464 639.24 424.862 640.498 425.841L667.346 445.837C669.723 447.655 673.079 447.235 675.036 444.998L710.134 403.747C711.113 402.489 711.672 400.951 711.532 399.413C711.393 397.875 710.554 396.476 709.295 395.497L682.447 375.502C681.329 374.663 680.21 374.383 679.092 374.383Z" fill="#5C96F5"/>
<g filter="url(#filter18_b_1001_14555)">
<path d="M686.503 417.033C686.083 417.452 685.664 417.732 684.964 417.872L665.528 420.109C664.269 420.249 663.151 419.41 663.011 418.012C662.871 416.753 663.71 415.634 665.108 415.495L684.545 413.257C685.803 413.117 686.922 413.956 687.062 415.355C687.202 415.914 686.922 416.473 686.503 417.033Z" fill="#5C96F5" fill-opacity="0.75"/>
</g>
<path d="M665.248 420.807C663.71 420.807 662.452 419.688 662.312 418.15C662.172 416.472 663.291 415.074 664.968 414.794L684.405 412.557C686.083 412.417 687.481 413.536 687.761 415.214C687.901 416.053 687.621 416.891 687.062 417.451C686.503 418.01 685.943 418.43 685.104 418.43L665.668 420.667C665.528 420.807 665.388 420.807 665.248 420.807ZM684.825 413.955H684.685L665.248 416.192C664.409 416.332 663.71 417.031 663.85 418.01C663.99 418.849 664.689 419.548 665.668 419.408L685.104 417.171C685.524 417.171 685.943 416.892 686.083 416.612C686.363 416.332 686.503 415.773 686.503 415.353C686.363 414.514 685.664 413.955 684.825 413.955Z" fill="white"/>
<path d="M673.218 408.501C678.392 412.835 678.951 420.526 674.617 425.56C670.282 430.734 662.591 431.293 657.557 426.958C652.383 422.624 651.824 414.933 656.159 409.899C660.354 404.865 668.045 404.166 673.218 408.501Z" fill="white"/>
<g filter="url(#filter19_b_1001_14555)">
<path d="M670.142 411.995C673.358 414.651 673.638 419.406 670.981 422.622C668.324 425.838 663.57 426.117 660.354 423.461C657.138 420.804 656.858 416.05 659.515 412.834C662.311 409.757 667.066 409.338 670.142 411.995Z" fill="#5C96F5" fill-opacity="0.75"/>
</g>
<g filter="url(#filter20_b_1001_14555)">
<path d="M685.524 393.816L681.888 398.571C680.909 399.829 679.092 400.109 677.833 399.13L673.079 395.494C671.82 394.516 671.541 392.698 672.52 391.439L676.155 386.685C677.134 385.427 678.952 385.147 680.21 386.126L684.964 389.761C686.223 390.6 686.503 392.418 685.524 393.816Z" fill="#5C96F5" fill-opacity="0.75"/>
</g>
<path d="M679.511 400.389C678.812 400.389 677.973 400.109 677.274 399.69L672.519 396.054C670.981 394.796 670.562 392.558 671.82 391.02L675.456 386.266C676.015 385.427 676.854 385.007 677.833 384.868C678.812 384.728 679.791 385.007 680.49 385.567L685.244 389.202C686.083 389.762 686.503 390.601 686.642 391.58C686.782 392.558 686.503 393.537 685.943 394.236L682.308 398.991C681.748 399.969 680.63 400.389 679.511 400.389ZM678.392 386.126C678.253 386.126 678.253 386.126 678.113 386.126C677.553 386.266 676.994 386.546 676.575 386.965L672.939 391.719C672.24 392.698 672.38 394.097 673.358 394.796L678.113 398.431C679.092 399.13 680.49 398.991 681.189 398.012L684.825 393.258C685.244 392.838 685.384 392.139 685.244 391.58C685.104 391.02 684.825 390.461 684.405 390.041L679.651 386.406C679.371 386.266 678.812 386.126 678.392 386.126Z" fill="white"/>
<path opacity="0.1" d="M1104.88 304.188L1168.64 231.755C1170.88 229.238 1174.65 228.819 1177.31 230.776L1207.23 252.31C1210.31 254.548 1210.87 259.022 1208.35 261.819L1144.59 334.251C1142.35 336.768 1138.58 337.188 1135.92 335.23L1106 313.696C1102.92 311.459 1102.36 307.124 1104.88 304.188Z" fill="#5C5A8E"/>
<g filter="url(#filter21_b_1001_14555)">
<path d="M1062.93 296.215L1126.69 223.782C1128.93 221.265 1132.7 220.846 1135.36 222.804L1165.28 244.338C1168.36 246.575 1168.92 251.05 1166.4 253.846L1102.64 326.279C1100.4 328.796 1096.63 329.215 1093.97 327.258L1064.05 305.724C1060.97 303.486 1060.41 299.012 1062.93 296.215Z" fill="url(#paint41_linear_1001_14555)" fill-opacity="0.8"/>
</g>
<path d="M1097.75 329.215C1096.35 329.215 1094.81 328.796 1093.55 327.817L1063.63 306.283C1061.95 305.164 1060.97 303.207 1060.69 301.249C1060.41 299.291 1061.11 297.194 1062.37 295.656L1126.13 223.223C1128.65 220.426 1132.7 220.007 1135.78 222.104L1165.7 243.638C1167.38 244.757 1168.36 246.715 1168.64 248.672C1168.92 250.63 1168.22 252.727 1166.96 254.266L1103.2 326.698C1101.8 328.376 1099.7 329.215 1097.75 329.215ZM1131.59 222.244C1129.91 222.244 1128.37 222.943 1127.25 224.202L1063.49 296.634C1062.37 297.893 1061.95 299.431 1062.09 301.109C1062.23 302.787 1063.21 304.185 1064.47 305.164L1094.39 326.698C1096.77 328.376 1100.12 328.097 1102.08 325.859L1165.84 253.427C1166.96 252.168 1167.38 250.63 1167.24 248.952C1167.1 247.274 1166.12 245.876 1164.87 244.897L1134.94 223.363C1133.96 222.524 1132.7 222.244 1131.59 222.244Z" fill="#F3CD53"/>
<path d="M1158.71 248.254C1158.01 247.135 1156.48 246.716 1155.36 247.415L1120.4 267.83L1135.36 230.216C1135.92 228.957 1135.22 227.559 1133.96 227C1132.7 226.44 1131.31 227.139 1130.75 228.398L1113.41 271.746L1073 295.377C1071.88 296.076 1071.46 297.614 1072.16 298.733C1072.58 299.572 1073.42 299.992 1074.25 299.992C1074.67 299.992 1075.09 299.852 1075.51 299.712L1110.47 279.297L1095.51 316.911C1094.95 318.17 1095.65 319.568 1096.91 320.127C1097.19 320.267 1097.47 320.267 1097.75 320.267C1098.73 320.267 1099.7 319.708 1099.98 318.729L1117.32 275.381L1157.73 251.75C1158.99 250.911 1159.41 249.373 1158.71 248.254Z" fill="white"/>
<path opacity="0.1" d="M1131.03 417.728L1150.6 394.516C1152.14 392.838 1154.66 392.559 1156.48 393.817L1208.07 434.648C1210.03 436.186 1210.45 438.983 1208.77 440.94L1189.2 464.152C1187.66 465.83 1185.14 466.11 1183.32 464.852L1131.73 424.161C1129.63 422.623 1129.35 419.686 1131.03 417.728Z" fill="#5C5A8E"/>
<g filter="url(#filter22_b_1001_14555)">
<path d="M1131.03 373.119L1150.6 349.907C1152.14 348.229 1154.66 347.949 1156.48 349.208L1208.07 390.039C1210.03 391.577 1210.45 394.373 1208.77 396.331L1189.2 419.543C1187.66 421.221 1185.14 421.501 1183.32 420.242L1131.73 379.411C1129.63 378.013 1129.35 375.077 1131.03 373.119Z" fill="url(#paint42_linear_1001_14555)" fill-opacity="0.8"/>
</g>
<path d="M1185.84 421.782C1184.86 421.782 1183.74 421.502 1182.9 420.803L1131.31 379.972C1130.19 379.133 1129.49 377.875 1129.35 376.477C1129.21 375.078 1129.63 373.68 1130.61 372.701L1150.18 349.489C1151.86 347.531 1154.94 347.112 1157.03 348.79L1208.63 389.621C1209.75 390.46 1210.45 391.718 1210.59 393.116C1210.73 394.515 1210.31 395.913 1209.33 396.892L1189.76 420.104C1188.64 421.223 1187.24 421.782 1185.84 421.782ZM1153.96 349.209C1152.98 349.209 1151.86 349.629 1151.16 350.468L1131.59 373.68C1130.89 374.519 1130.61 375.498 1130.75 376.477C1130.89 377.455 1131.31 378.434 1132.14 378.993L1183.74 419.824C1185.28 420.943 1187.38 420.663 1188.64 419.265L1208.21 396.053C1208.91 395.214 1209.19 394.235 1209.05 393.256C1208.91 392.277 1208.49 391.299 1207.65 390.739L1156.06 349.909C1155.36 349.489 1154.66 349.209 1153.96 349.209Z" fill="url(#paint43_linear_1001_14555)"/>
<path d="M1190.79 401.599C1191.53 400.702 1191.39 399.374 1190.49 398.645L1162.07 375.779L1174.77 380.137C1175.63 380.431 1176.56 379.963 1176.83 379.099C1177.1 378.264 1176.65 377.369 1175.82 377.083L1151.53 368.707C1150.65 368.403 1149.87 369.369 1150.35 370.169L1163.61 392.147C1164.07 392.916 1165.07 393.164 1165.84 392.702C1166.61 392.238 1166.86 391.232 1166.39 390.461L1159.41 378.995L1187.87 401.895C1188.76 402.611 1190.06 402.479 1190.79 401.599Z" fill="white"/>
<path opacity="0.2" d="M1026.43 190.924L1051.74 161C1053.7 158.762 1056.92 158.483 1059.29 160.161L1091.73 184.212C1094.39 186.169 1094.81 189.945 1092.57 192.322L1067.26 222.246C1065.31 224.483 1062.09 224.763 1059.71 223.085L1027.27 199.034C1024.75 197.076 1024.33 193.441 1026.43 190.924Z" fill="#5C5A8E"/>
<g filter="url(#filter23_b_1001_14555)">
<path d="M1020.42 169.109L1045.73 139.185C1047.69 136.948 1050.9 136.668 1053.28 138.346L1085.72 162.397C1088.38 164.355 1088.8 168.13 1086.56 170.507L1061.25 200.431C1059.29 202.669 1056.08 202.948 1053.7 201.27L1021.4 177.219C1018.74 175.262 1018.32 171.486 1020.42 169.109Z" fill="url(#paint44_linear_1001_14555)" fill-opacity="0.8"/>
</g>
<path d="M1057.06 203.089C1055.8 203.089 1054.4 202.67 1053.28 201.831L1020.84 177.78C1019.44 176.801 1018.46 175.123 1018.32 173.445C1018.18 171.767 1018.74 169.949 1019.86 168.691L1045.17 138.767C1047.27 136.25 1051.04 135.83 1053.7 137.788L1086.14 161.839C1087.54 162.818 1088.52 164.496 1088.66 166.174C1088.8 167.852 1088.24 169.67 1087.12 170.928L1061.81 200.852C1060.55 202.25 1058.87 203.089 1057.06 203.089ZM1050.06 137.928C1048.67 137.928 1047.27 138.487 1046.29 139.606L1020.98 169.53C1020.14 170.509 1019.72 171.907 1019.86 173.305C1020 174.703 1020.7 175.822 1021.82 176.661L1054.26 200.712C1056.36 202.25 1059.15 201.971 1060.83 200.013L1086.14 170.089C1086.98 169.11 1087.4 167.712 1087.26 166.314C1087.12 164.915 1086.42 163.797 1085.3 162.958L1052.86 138.907C1052.02 138.207 1051.04 137.928 1050.06 137.928Z" fill="#F3CD53"/>
<path d="M1068.1 172.746L1066.28 159.601L1060.13 160.44V153.729H1046.85V162.258L1039.02 163.377L1040.83 176.521L1046.85 175.682V182.114H1060.13V173.864L1068.1 172.746Z" fill="white"/>
<path d="M1060.83 182.813H1046.15V176.521L1040.14 177.36L1038.18 162.817L1046.15 161.699V153.029H1060.83V159.741L1066.84 158.902L1068.8 173.445L1060.83 174.563V182.813ZM1047.55 181.415H1059.43V173.305L1067.26 172.186L1065.72 160.44L1059.57 161.279V154.428H1047.69V162.957L1039.86 164.076L1041.39 175.822L1047.55 174.983V181.415Z" fill="#F3CD53"/>
<path d="M1128.23 480.04H1125.43C1125.43 477.104 1126.27 475.566 1126.97 474.167C1127.67 472.909 1128.23 471.93 1128.23 469.553C1128.23 467.316 1127.67 466.197 1126.97 464.938C1126.27 463.54 1125.43 462.002 1125.43 459.066C1125.43 456.129 1126.27 454.591 1126.97 453.193C1127.67 451.934 1128.23 450.955 1128.23 448.578C1128.23 446.341 1127.67 445.222 1126.97 443.964C1126.27 442.565 1125.43 441.027 1125.43 438.091C1125.43 435.154 1126.27 433.616 1126.97 432.218C1127.67 430.959 1128.23 429.981 1128.23 427.604H1131.03C1131.03 430.54 1130.19 432.078 1129.49 433.476C1128.79 434.735 1128.23 435.714 1128.23 438.091C1128.23 440.328 1128.79 441.447 1129.49 442.705C1130.19 444.104 1131.03 445.642 1131.03 448.578C1131.03 451.515 1130.19 453.053 1129.49 454.451C1128.79 455.71 1128.23 456.688 1128.23 459.066C1128.23 461.303 1128.79 462.421 1129.49 463.68C1130.19 465.078 1131.03 466.616 1131.03 469.553C1131.03 472.489 1130.19 474.027 1129.49 475.426C1128.79 476.824 1128.23 477.803 1128.23 480.04Z" fill="white"/>
<path d="M1135.22 480.04H1132.42C1132.42 477.104 1133.26 475.566 1133.96 474.167C1134.66 472.909 1135.22 471.93 1135.22 469.553C1135.22 467.316 1134.66 466.197 1133.96 464.938C1133.26 463.54 1132.42 462.002 1132.42 459.066C1132.42 456.129 1133.26 454.591 1133.96 453.193C1134.66 451.934 1135.22 450.955 1135.22 448.578C1135.22 446.341 1134.66 445.222 1133.96 443.964C1133.26 442.565 1132.42 441.027 1132.42 438.091C1132.42 435.154 1133.26 433.616 1133.96 432.218C1134.66 430.959 1135.22 429.981 1135.22 427.604H1138.02C1138.02 430.54 1137.18 432.078 1136.48 433.476C1135.78 434.735 1135.22 435.714 1135.22 438.091C1135.22 440.328 1135.78 441.447 1136.48 442.705C1137.18 444.104 1138.02 445.642 1138.02 448.578C1138.02 451.515 1137.18 453.053 1136.48 454.451C1135.78 455.71 1135.22 456.688 1135.22 459.066C1135.22 461.303 1135.78 462.421 1136.48 463.68C1137.18 465.078 1138.02 466.616 1138.02 469.553C1138.02 472.489 1137.18 474.027 1136.48 475.426C1135.78 476.824 1135.22 477.803 1135.22 480.04Z" fill="white"/>
<path d="M1142.21 480.04H1139.42C1139.42 477.104 1140.25 475.566 1140.95 474.167C1141.65 472.909 1142.21 471.93 1142.21 469.553C1142.21 467.316 1141.65 466.197 1140.95 464.938C1140.25 463.54 1139.42 462.002 1139.42 459.066C1139.42 456.129 1140.25 454.591 1140.95 453.193C1141.65 451.934 1142.21 450.955 1142.21 448.578C1142.21 446.341 1141.65 445.222 1140.95 443.964C1140.25 442.565 1139.42 441.027 1139.42 438.091C1139.42 435.154 1140.25 433.616 1140.95 432.218C1141.65 430.959 1142.21 429.981 1142.21 427.604H1145.01C1145.01 430.54 1144.17 432.078 1143.47 433.476C1142.77 434.735 1142.21 435.714 1142.21 438.091C1142.21 440.328 1142.77 441.447 1143.47 442.705C1144.17 444.104 1145.01 445.642 1145.01 448.578C1145.01 451.515 1144.17 453.053 1143.47 454.451C1142.77 455.71 1142.21 456.688 1142.21 459.066C1142.21 461.303 1142.77 462.421 1143.47 463.68C1144.17 465.078 1145.01 466.616 1145.01 469.553C1145.01 472.489 1144.17 474.027 1143.47 475.426C1142.77 476.824 1142.21 477.803 1142.21 480.04Z" fill="white"/>
<path d="M419.124 193.671H416.327C416.327 190.735 417.166 189.197 417.865 187.798C418.565 186.54 419.124 185.561 419.124 183.184C419.124 180.946 418.565 179.828 417.865 178.569C417.166 177.171 416.327 175.633 416.327 172.696C416.327 169.76 417.166 168.222 417.865 166.824C418.565 165.565 419.124 164.586 419.124 162.209C419.124 159.972 418.565 158.853 417.865 157.595C417.166 156.196 416.327 154.658 416.327 151.722C416.327 148.785 417.166 147.247 417.865 145.849C418.565 144.59 419.124 143.612 419.124 141.234H421.921C421.921 144.171 421.082 145.709 420.382 147.107C419.683 148.366 419.124 149.345 419.124 151.722C419.124 153.959 419.683 155.078 420.382 156.336C421.082 157.734 421.921 159.273 421.921 162.209C421.921 165.146 421.082 166.684 420.382 168.082C419.683 169.34 419.124 170.319 419.124 172.696C419.124 174.934 419.683 176.052 420.382 177.311C421.082 178.709 421.921 180.247 421.921 183.184C421.921 186.12 421.082 187.658 420.382 189.057C419.683 190.455 419.124 191.434 419.124 193.671Z" fill="white"/>
<path d="M426.115 193.671H423.319C423.319 190.735 424.158 189.197 424.857 187.798C425.556 186.54 426.115 185.561 426.115 183.184C426.115 180.946 425.556 179.828 424.857 178.569C424.158 177.171 423.319 175.633 423.319 172.696C423.319 169.76 424.158 168.222 424.857 166.824C425.556 165.565 426.115 164.586 426.115 162.209C426.115 159.972 425.556 158.853 424.857 157.595C424.158 156.196 423.319 154.658 423.319 151.722C423.319 148.785 424.158 147.247 424.857 145.849C425.556 144.59 426.115 143.612 426.115 141.234H428.912C428.912 144.171 428.073 145.709 427.374 147.107C426.675 148.366 426.115 149.345 426.115 151.722C426.115 153.959 426.675 155.078 427.374 156.336C428.073 157.734 428.912 159.273 428.912 162.209C428.912 165.146 428.073 166.684 427.374 168.082C426.675 169.34 426.115 170.319 426.115 172.696C426.115 174.934 426.675 176.052 427.374 177.311C428.073 178.709 428.912 180.247 428.912 183.184C428.912 186.12 428.073 187.658 427.374 189.057C426.675 190.455 426.115 191.434 426.115 193.671Z" fill="white"/>
<path d="M433.107 193.671H430.31C430.31 190.735 431.149 189.197 431.849 187.798C432.548 186.54 433.107 185.561 433.107 183.184C433.107 180.946 432.548 179.828 431.849 178.569C431.149 177.171 430.31 175.633 430.31 172.696C430.31 169.76 431.149 168.222 431.849 166.824C432.548 165.565 433.107 164.586 433.107 162.209C433.107 159.972 432.548 158.853 431.849 157.595C431.149 156.196 430.31 154.658 430.31 151.722C430.31 148.785 431.149 147.247 431.849 145.849C432.548 144.59 433.107 143.612 433.107 141.234H435.904C435.904 144.171 435.065 145.709 434.366 147.107C433.666 148.366 433.107 149.345 433.107 151.722C433.107 153.959 433.666 155.078 434.366 156.336C435.065 157.734 435.904 159.273 435.904 162.209C435.904 165.146 435.065 166.684 434.366 168.082C433.666 169.34 433.107 170.319 433.107 172.696C433.107 174.934 433.666 176.052 434.366 177.311C435.065 178.709 435.904 180.247 435.904 183.184C435.904 186.12 435.065 187.658 434.366 189.057C433.666 190.455 433.107 191.434 433.107 193.671Z" fill="white"/>
<path d="M755.579 76.2081H752.782C752.782 72.1529 753.481 70.0555 754.32 68.0978C755.019 66.28 755.579 64.4622 755.579 60.9664C755.579 57.3308 754.88 55.6529 754.32 53.835C753.621 51.8774 752.782 49.7799 752.782 45.7248C752.782 41.6697 753.481 39.5723 754.32 37.6146C755.019 35.7968 755.579 33.979 755.579 30.4832C755.579 26.8476 754.88 25.1696 754.32 23.3518C753.621 21.3942 752.782 19.2967 752.782 15.2416C752.782 11.1865 753.481 9.08903 754.32 7.1314C755.019 5.31359 755.579 3.49578 755.579 0H758.375C758.375 4.05511 757.676 6.15258 756.837 8.11021C756.138 9.92802 755.579 11.7458 755.579 15.2416C755.579 18.8772 756.278 20.5552 756.837 22.373C757.536 24.3306 758.375 26.4281 758.375 30.4832C758.375 34.5383 757.676 36.6358 756.837 38.5934C756.138 40.4112 755.579 42.229 755.579 45.7248C755.579 49.3604 756.278 51.0384 756.837 52.8562C757.536 54.8139 758.375 56.9113 758.375 60.9664C758.375 65.0215 757.676 67.119 756.837 69.0767C756.278 70.8945 755.579 72.5724 755.579 76.2081Z" fill="white"/>
<path d="M762.57 76.2081H759.774C759.774 72.1529 760.473 70.0555 761.312 68.0978C762.011 66.28 762.57 64.4622 762.57 60.9664C762.57 57.3308 761.871 55.6529 761.312 53.835C760.613 51.8774 759.774 49.7799 759.774 45.7248C759.774 41.6697 760.473 39.5723 761.312 37.6146C762.011 35.7968 762.57 33.979 762.57 30.4832C762.57 26.8476 761.871 25.1696 761.312 23.3518C760.613 21.3942 759.774 19.2967 759.774 15.2416C759.774 11.1865 760.473 9.08903 761.312 7.1314C762.011 5.31359 762.57 3.49578 762.57 0H765.367C765.367 4.05511 764.668 6.15258 763.829 8.11021C763.13 9.92802 762.57 11.7458 762.57 15.2416C762.57 18.8772 763.269 20.5552 763.829 22.373C764.528 24.3306 765.367 26.4281 765.367 30.4832C765.367 34.5383 764.668 36.6358 763.829 38.5934C763.13 40.4112 762.57 42.229 762.57 45.7248C762.57 49.3604 763.269 51.0384 763.829 52.8562C764.528 54.8139 765.367 56.9113 765.367 60.9664C765.367 65.0215 764.668 67.119 763.829 69.0767C763.269 70.8945 762.57 72.5724 762.57 76.2081Z" fill="white"/>
<path d="M769.562 76.2081H766.765C766.765 72.1529 767.464 70.0555 768.303 68.0978C769.003 66.28 769.562 64.4622 769.562 60.9664C769.562 57.3308 768.863 55.6529 768.303 53.835C767.604 51.8774 766.765 49.7799 766.765 45.7248C766.765 41.6697 767.464 39.5723 768.303 37.6146C769.003 35.7968 769.562 33.979 769.562 30.4832C769.562 26.8476 768.863 25.1696 768.303 23.3518C767.604 21.3942 766.765 19.2967 766.765 15.2416C766.765 11.1865 767.464 9.08903 768.303 7.1314C769.003 5.31359 769.562 3.49578 769.562 0H772.359C772.359 4.05511 771.659 6.15258 770.82 8.11021C770.121 9.92802 769.562 11.7458 769.562 15.2416C769.562 18.8772 770.261 20.5552 770.82 22.373C771.52 24.3306 772.359 26.4281 772.359 30.4832C772.359 34.5383 771.659 36.6358 770.82 38.5934C770.121 40.4112 769.562 42.229 769.562 45.7248C769.562 49.3604 770.261 51.0384 770.82 52.8562C771.52 54.8139 772.359 56.9113 772.359 60.9664C772.359 65.0215 771.659 67.119 770.82 69.0767C770.261 70.8945 769.562 72.5724 769.562 76.2081Z" fill="white"/>
<path d="M840.596 76.0659C837.8 76.0659 835.562 73.8286 835.562 71.032C835.562 68.2354 837.8 65.998 840.596 65.998C843.393 65.998 845.63 68.2354 845.63 71.032C845.63 73.8286 843.393 76.0659 840.596 76.0659ZM840.596 68.7947C839.338 68.7947 838.359 69.7735 838.359 71.032C838.359 72.2905 839.338 73.2693 840.596 73.2693C841.855 73.2693 842.833 72.2905 842.833 71.032C842.833 69.9133 841.855 68.7947 840.596 68.7947Z" fill="white"/>
<path d="M1085.02 124.73C1082.22 124.73 1079.99 122.493 1079.99 119.696C1079.99 116.899 1082.22 114.662 1085.02 114.662C1087.82 114.662 1090.06 116.899 1090.06 119.696C1090.06 122.493 1087.82 124.73 1085.02 124.73ZM1085.02 117.459C1083.76 117.459 1082.78 118.438 1082.78 119.696C1082.78 120.955 1083.76 121.933 1085.02 121.933C1086.28 121.933 1087.26 120.955 1087.26 119.696C1087.26 118.438 1086.28 117.459 1085.02 117.459Z" fill="white"/>
<path d="M559.256 388.869C556.459 388.869 554.222 386.631 554.222 383.835C554.222 381.038 556.459 378.801 559.256 378.801C562.052 378.801 564.29 381.038 564.29 383.835C564.15 386.631 561.913 388.869 559.256 388.869ZM559.256 381.737C557.997 381.737 557.019 382.716 557.019 383.975C557.019 385.233 557.997 386.212 559.256 386.212C560.514 386.212 561.493 385.233 561.493 383.975C561.353 382.716 560.374 381.737 559.256 381.737Z" fill="white"/>
<path d="M1202.06 322.312C1199.26 322.312 1197.03 320.075 1197.03 317.278C1197.03 314.481 1199.26 312.244 1202.06 312.244C1204.86 312.244 1207.09 314.481 1207.09 317.278C1207.09 320.075 1204.86 322.312 1202.06 322.312ZM1202.06 315.041C1200.8 315.041 1199.82 316.02 1199.82 317.278C1199.82 318.537 1200.8 319.515 1202.06 319.515C1203.32 319.515 1204.3 318.537 1204.3 317.278C1204.3 316.02 1203.32 315.041 1202.06 315.041Z" fill="white"/>
<path d="M529.891 150.457C527.095 150.457 524.857 148.219 524.857 145.423C524.857 142.626 527.095 140.389 529.891 140.389C532.688 140.389 534.925 142.626 534.925 145.423C534.925 148.219 532.688 150.457 529.891 150.457ZM529.891 143.325C528.633 143.325 527.654 144.304 527.654 145.562C527.654 146.821 528.633 147.8 529.891 147.8C531.15 147.8 532.129 146.821 532.129 145.562C532.129 144.304 531.15 143.325 529.891 143.325Z" fill="white"/>
<path d="M635.166 99.9009L631.671 83.9602L635.166 66.6211L638.662 83.9602L635.166 99.9009Z" fill="#F5F9FE"/>
<path d="M648.311 83.9606L635.167 87.4564L622.022 83.9606L635.167 80.4648L648.311 83.9606Z" fill="#F5F9FE"/>
<path d="M1074.53 277.846L1071.04 261.905L1074.53 244.566L1077.89 261.905L1074.53 277.846Z" fill="#F5F9FE"/>
<path d="M1087.54 261.905L1074.53 265.401L1061.39 261.905L1074.53 258.549L1087.54 261.905Z" fill="#F5F9FE"/>
<path d="M513.112 394.465L509.756 378.525L513.112 361.186L516.607 378.525L513.112 394.465Z" fill="#F5F9FE"/>
<path d="M526.256 378.526L513.111 382.022L499.967 378.526L513.111 375.17L526.256 378.526Z" fill="#F5F9FE"/>
<path d="M1027.55 143.606L1024.05 127.665L1027.55 110.326L1030.91 127.665L1027.55 143.606Z" fill="#F5F9FE"/>
<path d="M1040.55 127.666L1027.55 131.161L1014.41 127.666L1027.55 124.17L1040.55 127.666Z" fill="#F5F9FE"/>
<path d="M989.237 78.1637L986.999 67.956L989.237 56.7695L991.474 67.956L989.237 78.1637Z" fill="#F5F9FE"/>
<path d="M997.627 67.956L989.237 70.1933L980.707 67.956L989.237 65.7188L997.627 67.956Z" fill="#F5F9FE"/>
<path d="M1111.73 417.119L1109.49 406.771L1111.73 395.725L1113.97 406.771L1111.73 417.119Z" fill="#F5F9FE"/>
<path d="M1120.26 406.771L1111.73 409.009L1103.34 406.771L1111.73 404.674L1120.26 406.771Z" fill="#F5F9FE"/>
</g>
<defs>
<filter id="filter0_b_1001_14555" x="732.132" y="75.2246" width="192.115" height="178.322" filterUnits="userSpaceOnUse" color-interpolation-filters="sRGB">
<feFlood flood-opacity="0" result="BackgroundImageFix"/>
<feGaussianBlur in="BackgroundImage" stdDeviation="2"/>
<feComposite in2="SourceAlpha" operator="in" result="effect1_backgroundBlur_1001_14555"/>
<feBlend mode="normal" in="SourceGraphic" in2="effect1_backgroundBlur_1001_14555" result="shape"/>
</filter>
<filter id="filter1_b_1001_14555" x="732.144" y="75.2246" width="146.126" height="144.689" filterUnits="userSpaceOnUse" color-interpolation-filters="sRGB">
<feFlood flood-opacity="0" result="BackgroundImageFix"/>
<feGaussianBlur in="BackgroundImage" stdDeviation="2"/>
<feComposite in2="SourceAlpha" operator="in" result="effect1_backgroundBlur_1001_14555"/>
<feBlend mode="normal" in="SourceGraphic" in2="effect1_backgroundBlur_1001_14555" result="shape"/>
</filter>
<filter id="filter2_b_1001_14555" x="872.281" y="165.732" width="148.616" height="146.16" filterUnits="userSpaceOnUse" color-interpolation-filters="sRGB">
<feFlood flood-opacity="0" result="BackgroundImageFix"/>
<feGaussianBlur in="BackgroundImage" stdDeviation="2"/>
<feComposite in2="SourceAlpha" operator="in" result="effect1_backgroundBlur_1001_14555"/>
<feBlend mode="normal" in="SourceGraphic" in2="effect1_backgroundBlur_1001_14555" result="shape"/>
</filter>
<filter id="filter3_b_1001_14555" x="904.512" y="70.8047" width="55.5901" height="52.1621" filterUnits="userSpaceOnUse" color-interpolation-filters="sRGB">
<feFlood flood-opacity="0" result="BackgroundImageFix"/>
<feGaussianBlur in="BackgroundImage" stdDeviation="1"/>
<feComposite in2="SourceAlpha" operator="in" result="effect1_backgroundBlur_1001_14555"/>
<feBlend mode="normal" in="SourceGraphic" in2="effect1_backgroundBlur_1001_14555" result="shape"/>
</filter>
<filter id="filter4_b_1001_14555" x="919.042" y="82.416" width="26.4702" height="24.373" filterUnits="userSpaceOnUse" color-interpolation-filters="sRGB">
<feFlood flood-opacity="0" result="BackgroundImageFix"/>
<feGaussianBlur in="BackgroundImage" stdDeviation="1"/>
<feComposite in2="SourceAlpha" operator="in" result="effect1_backgroundBlur_1001_14555"/>
<feBlend mode="normal" in="SourceGraphic" in2="effect1_backgroundBlur_1001_14555" result="shape"/>
</filter>
<filter id="filter5_b_1001_14555" x="656.069" y="17.8105" width="55.6931" height="52.1621" filterUnits="userSpaceOnUse" color-interpolation-filters="sRGB">
<feFlood flood-opacity="0" result="BackgroundImageFix"/>
<feGaussianBlur in="BackgroundImage" stdDeviation="1"/>
<feComposite in2="SourceAlpha" operator="in" result="effect1_backgroundBlur_1001_14555"/>
<feBlend mode="normal" in="SourceGraphic" in2="effect1_backgroundBlur_1001_14555" result="shape"/>
</filter>
<filter id="filter6_b_1001_14555" x="610.125" y="299.389" width="59.5901" height="56.1621" filterUnits="userSpaceOnUse" color-interpolation-filters="sRGB">
<feFlood flood-opacity="0" result="BackgroundImageFix"/>
<feGaussianBlur in="BackgroundImage" stdDeviation="2"/>
<feComposite in2="SourceAlpha" operator="in" result="effect1_backgroundBlur_1001_14555"/>
<feBlend mode="normal" in="SourceGraphic" in2="effect1_backgroundBlur_1001_14555" result="shape"/>
</filter>
<filter id="filter7_b_1001_14555" x="620.593" y="309.627" width="24.9559" height="26.1777" filterUnits="userSpaceOnUse" color-interpolation-filters="sRGB">
<feFlood flood-opacity="0" result="BackgroundImageFix"/>
<feGaussianBlur in="BackgroundImage" stdDeviation="2"/>
<feComposite in2="SourceAlpha" operator="in" result="effect1_backgroundBlur_1001_14555"/>
<feBlend mode="normal" in="SourceGraphic" in2="effect1_backgroundBlur_1001_14555" result="shape"/>
</filter>
<filter id="filter8_b_1001_14555" x="708.921" y="262.395" width="70.9181" height="67.082" filterUnits="userSpaceOnUse" color-interpolation-filters="sRGB">
<feFlood flood-opacity="0" result="BackgroundImageFix"/>
<feGaussianBlur in="BackgroundImage" stdDeviation="0.5"/>
<feComposite in2="SourceAlpha" operator="in" result="effect1_backgroundBlur_1001_14555"/>
<feBlend mode="normal" in="SourceGraphic" in2="effect1_backgroundBlur_1001_14555" result="shape"/>
</filter>
<filter id="filter9_b_1001_14555" x="735.848" y="279.957" width="121.066" height="122.982" filterUnits="userSpaceOnUse" color-interpolation-filters="sRGB">
<feFlood flood-opacity="0" result="BackgroundImageFix"/>
<feGaussianBlur in="BackgroundImage" stdDeviation="1"/>
<feComposite in2="SourceAlpha" operator="in" result="effect1_backgroundBlur_1001_14555"/>
<feBlend mode="normal" in="SourceGraphic" in2="effect1_backgroundBlur_1001_14555" result="shape"/>
</filter>
<filter id="filter10_b_1001_14555" x="988.494" y="241.703" width="58.5375" height="57.5703" filterUnits="userSpaceOnUse" color-interpolation-filters="sRGB">
<feFlood flood-opacity="0" result="BackgroundImageFix"/>
<feGaussianBlur in="BackgroundImage" stdDeviation="1"/>
<feComposite in2="SourceAlpha" operator="in" result="effect1_backgroundBlur_1001_14555"/>
<feBlend mode="normal" in="SourceGraphic" in2="effect1_backgroundBlur_1001_14555" result="shape"/>
</filter>
<filter id="filter11_b_1001_14555" x="1013.54" y="264.822" width="11.3873" height="11.4766" filterUnits="userSpaceOnUse" color-interpolation-filters="sRGB">
<feFlood flood-opacity="0" result="BackgroundImageFix"/>
<feGaussianBlur in="BackgroundImage" stdDeviation="1"/>
<feComposite in2="SourceAlpha" operator="in" result="effect1_backgroundBlur_1001_14555"/>
<feBlend mode="normal" in="SourceGraphic" in2="effect1_backgroundBlur_1001_14555" result="shape"/>
</filter>
<filter id="filter12_b_1001_14555" x="1021.79" y="255.729" width="11.3873" height="11.4766" filterUnits="userSpaceOnUse" color-interpolation-filters="sRGB">
<feFlood flood-opacity="0" result="BackgroundImageFix"/>
<feGaussianBlur in="BackgroundImage" stdDeviation="1"/>
<feComposite in2="SourceAlpha" operator="in" result="effect1_backgroundBlur_1001_14555"/>
<feBlend mode="normal" in="SourceGraphic" in2="effect1_backgroundBlur_1001_14555" result="shape"/>
</filter>
<filter id="filter13_b_1001_14555" x="1005.01" y="274.252" width="11.3873" height="11.416" filterUnits="userSpaceOnUse" color-interpolation-filters="sRGB">
<feFlood flood-opacity="0" result="BackgroundImageFix"/>
<feGaussianBlur in="BackgroundImage" stdDeviation="1"/>
<feComposite in2="SourceAlpha" operator="in" result="effect1_backgroundBlur_1001_14555"/>
<feBlend mode="normal" in="SourceGraphic" in2="effect1_backgroundBlur_1001_14555" result="shape"/>
</filter>
<filter id="filter14_b_1001_14555" x="497.715" y="100.615" width="159.158" height="160.199" filterUnits="userSpaceOnUse" color-interpolation-filters="sRGB">
<feFlood flood-opacity="0" result="BackgroundImageFix"/>
<feGaussianBlur in="BackgroundImage" stdDeviation="1"/>
<feComposite in2="SourceAlpha" operator="in" result="effect1_backgroundBlur_1001_14555"/>
<feBlend mode="normal" in="SourceGraphic" in2="effect1_backgroundBlur_1001_14555" result="shape"/>
</filter>
<filter id="filter15_b_1001_14555" x="989.9" y="386.105" width="88.6221" height="84.2148" filterUnits="userSpaceOnUse" color-interpolation-filters="sRGB">
<feFlood flood-opacity="0" result="BackgroundImageFix"/>
<feGaussianBlur in="BackgroundImage" stdDeviation="2"/>
<feComposite in2="SourceAlpha" operator="in" result="effect1_backgroundBlur_1001_14555"/>
<feBlend mode="normal" in="SourceGraphic" in2="effect1_backgroundBlur_1001_14555" result="shape"/>
</filter>
<filter id="filter16_b_1001_14555" x="1010.81" y="404.926" width="46.6003" height="46.5996" filterUnits="userSpaceOnUse" color-interpolation-filters="sRGB">
<feFlood flood-opacity="0" result="BackgroundImageFix"/>
<feGaussianBlur in="BackgroundImage" stdDeviation="2"/>
<feComposite in2="SourceAlpha" operator="in" result="effect1_backgroundBlur_1001_14555"/>
<feBlend mode="normal" in="SourceGraphic" in2="effect1_backgroundBlur_1001_14555" result="shape"/>
</filter>
<filter id="filter17_b_1001_14555" x="635.562" y="371.572" width="78.5874" height="77.9121" filterUnits="userSpaceOnUse" color-interpolation-filters="sRGB">
<feFlood flood-opacity="0" result="BackgroundImageFix"/>
<feGaussianBlur in="BackgroundImage" stdDeviation="1"/>
<feComposite in2="SourceAlpha" operator="in" result="effect1_backgroundBlur_1001_14555"/>
<feBlend mode="normal" in="SourceGraphic" in2="effect1_backgroundBlur_1001_14555" result="shape"/>
</filter>
<filter id="filter18_b_1001_14555" x="660.996" y="411.242" width="28.1025" height="10.8828" filterUnits="userSpaceOnUse" color-interpolation-filters="sRGB">
<feFlood flood-opacity="0" result="BackgroundImageFix"/>
<feGaussianBlur in="BackgroundImage" stdDeviation="1"/>
<feComposite in2="SourceAlpha" operator="in" result="effect1_backgroundBlur_1001_14555"/>
<feBlend mode="normal" in="SourceGraphic" in2="effect1_backgroundBlur_1001_14555" result="shape"/>
</filter>
<filter id="filter19_b_1001_14555" x="655.712" y="408.238" width="19.0718" height="19.0254" filterUnits="userSpaceOnUse" color-interpolation-filters="sRGB">
<feFlood flood-opacity="0" result="BackgroundImageFix"/>
<feGaussianBlur in="BackgroundImage" stdDeviation="1"/>
<feComposite in2="SourceAlpha" operator="in" result="effect1_backgroundBlur_1001_14555"/>
<feBlend mode="normal" in="SourceGraphic" in2="effect1_backgroundBlur_1001_14555" result="shape"/>
</filter>
<filter id="filter20_b_1001_14555" x="669.931" y="383.537" width="18.1815" height="18.1816" filterUnits="userSpaceOnUse" color-interpolation-filters="sRGB">
<feFlood flood-opacity="0" result="BackgroundImageFix"/>
<feGaussianBlur in="BackgroundImage" stdDeviation="1"/>
<feComposite in2="SourceAlpha" operator="in" result="effect1_backgroundBlur_1001_14555"/>
<feBlend mode="normal" in="SourceGraphic" in2="effect1_backgroundBlur_1001_14555" result="shape"/>
</filter>
<filter id="filter21_b_1001_14555" x="1060.34" y="220.574" width="108.645" height="108.912" filterUnits="userSpaceOnUse" color-interpolation-filters="sRGB">
<feFlood flood-opacity="0" result="BackgroundImageFix"/>
<feGaussianBlur in="BackgroundImage" stdDeviation="0.5"/>
<feComposite in2="SourceAlpha" operator="in" result="effect1_backgroundBlur_1001_14555"/>
<feBlend mode="normal" in="SourceGraphic" in2="effect1_backgroundBlur_1001_14555" result="shape"/>
</filter>
<filter id="filter22_b_1001_14555" x="1125.94" y="344.426" width="87.8819" height="80.5977" filterUnits="userSpaceOnUse" color-interpolation-filters="sRGB">
<feFlood flood-opacity="0" result="BackgroundImageFix"/>
<feGaussianBlur in="BackgroundImage" stdDeviation="2"/>
<feComposite in2="SourceAlpha" operator="in" result="effect1_backgroundBlur_1001_14555"/>
<feBlend mode="normal" in="SourceGraphic" in2="effect1_backgroundBlur_1001_14555" result="shape"/>
</filter>
<filter id="filter23_b_1001_14555" x="1018.09" y="136.268" width="70.9181" height="67.082" filterUnits="userSpaceOnUse" color-interpolation-filters="sRGB">
<feFlood flood-opacity="0" result="BackgroundImageFix"/>
<feGaussianBlur in="BackgroundImage" stdDeviation="0.5"/>
<feComposite in2="SourceAlpha" operator="in" result="effect1_backgroundBlur_1001_14555"/>
<feBlend mode="normal" in="SourceGraphic" in2="effect1_backgroundBlur_1001_14555" result="shape"/>
</filter>
<linearGradient id="paint0_linear_1001_14555" x1="482.266" y1="298.808" x2="247.42" y2="63.9629" gradientUnits="userSpaceOnUse">
<stop stop-color="#D5DCF8"/>
<stop offset="1" stop-color="#F1F5FF"/>
</linearGradient>
<linearGradient id="paint1_linear_1001_14555" x1="1528.57" y1="487.64" x2="720.073" y2="-125.36" gradientUnits="userSpaceOnUse">
<stop stop-color="#C3D2FF"/>
<stop offset="1" stop-color="#F1F5FF"/>
</linearGradient>
<linearGradient id="paint2_linear_1001_14555" x1="205.819" y1="462.68" x2="68" y2="324.861" gradientUnits="userSpaceOnUse">
<stop stop-color="#D5DCF8"/>
<stop offset="1" stop-color="#F1F5FF"/>
</linearGradient>
<linearGradient id="paint3_linear_1001_14555" x1="535.247" y1="492.936" x2="431.284" y2="388.973" gradientUnits="userSpaceOnUse">
<stop stop-color="#D5DCF8"/>
<stop offset="1" stop-color="#F1F5FF"/>
</linearGradient>
<linearGradient id="paint4_linear_1001_14555" x1="635.154" y1="267.679" x2="1038.96" y2="267.679" gradientUnits="userSpaceOnUse">
<stop offset="0.00359712" stop-color="#CBB8F7"/>
<stop offset="1" stop-color="#9571F6"/>
</linearGradient>
<linearGradient id="paint5_linear_1001_14555" x1="996.229" y1="165.316" x2="757.383" y2="438.207" gradientUnits="userSpaceOnUse">
<stop stop-color="#6136C4"/>
<stop offset="1" stop-color="#7B55D0"/>
</linearGradient>
<linearGradient id="paint6_linear_1001_14555" x1="692.38" y1="252.937" x2="678.743" y2="264.232" gradientUnits="userSpaceOnUse">
<stop stop-color="#6136C4"/>
<stop offset="1" stop-color="#7B55D0"/>
</linearGradient>
<linearGradient id="paint7_linear_1001_14555" x1="749.341" y1="278.001" x2="719.206" y2="311.194" gradientUnits="userSpaceOnUse">
<stop stop-color="#6136C4"/>
<stop offset="1" stop-color="#7B55D0"/>
</linearGradient>
<linearGradient id="paint8_linear_1001_14555" x1="988.383" y1="355.823" x2="972.843" y2="365.425" gradientUnits="userSpaceOnUse">
<stop stop-color="#6136C4"/>
<stop offset="1" stop-color="#7B55D0"/>
</linearGradient>
<linearGradient id="paint9_linear_1001_14555" x1="967.982" y1="379.362" x2="965.064" y2="382.01" gradientUnits="userSpaceOnUse">
<stop stop-color="#6136C4"/>
<stop offset="1" stop-color="#7B55D0"/>
</linearGradient>
<linearGradient id="paint10_linear_1001_14555" x1="1010.35" y1="331.262" x2="1007.43" y2="333.91" gradientUnits="userSpaceOnUse">
<stop stop-color="#6136C4"/>
<stop offset="1" stop-color="#7B55D0"/>
</linearGradient>
<linearGradient id="paint11_linear_1001_14555" x1="1015.67" y1="325.669" x2="1012.75" y2="328.316" gradientUnits="userSpaceOnUse">
<stop stop-color="#6136C4"/>
<stop offset="1" stop-color="#7B55D0"/>
</linearGradient>
<linearGradient id="paint12_linear_1001_14555" x1="1020.98" y1="319.936" x2="1018.06" y2="322.584" gradientUnits="userSpaceOnUse">
<stop stop-color="#6136C4"/>
<stop offset="1" stop-color="#7B55D0"/>
</linearGradient>
<linearGradient id="paint13_linear_1001_14555" x1="1025.73" y1="314.342" x2="1022.81" y2="316.99" gradientUnits="userSpaceOnUse">
<stop stop-color="#6136C4"/>
<stop offset="1" stop-color="#7B55D0"/>
</linearGradient>
<linearGradient id="paint14_linear_1001_14555" x1="772.547" y1="167.654" x2="710.771" y2="225.765" gradientUnits="userSpaceOnUse">
<stop stop-color="#6136C4"/>
<stop offset="1" stop-color="#7B55D0"/>
</linearGradient>
<linearGradient id="paint15_linear_1001_14555" x1="803.331" y1="211.426" x2="753.69" y2="251.794" gradientUnits="userSpaceOnUse">
<stop stop-color="#6136C4"/>
<stop offset="1" stop-color="#7B55D0"/>
</linearGradient>
<linearGradient id="paint16_linear_1001_14555" x1="883.857" y1="242.788" x2="818.035" y2="319.358" gradientUnits="userSpaceOnUse">
<stop stop-color="#845CD3"/>
<stop offset="1" stop-color="#B46FD3"/>
</linearGradient>
<linearGradient id="paint17_linear_1001_14555" x1="945.847" y1="287.141" x2="868.141" y2="379.426" gradientUnits="userSpaceOnUse">
<stop stop-color="#845CD3"/>
<stop offset="1" stop-color="#B46FD3"/>
</linearGradient>
<linearGradient id="paint18_linear_1001_14555" x1="889.66" y1="92.223" x2="761.142" y2="255.281" gradientUnits="userSpaceOnUse">
<stop stop-color="#845CD3"/>
<stop offset="1" stop-color="#B46FD3"/>
</linearGradient>
<linearGradient id="paint19_linear_1001_14555" x1="824.036" y1="207.359" x2="869.271" y2="207.359" gradientUnits="userSpaceOnUse">
<stop stop-color="#FF8D02"/>
<stop offset="1" stop-color="#FFC757"/>
</linearGradient>
<linearGradient id="paint20_linear_1001_14555" x1="900.195" y1="153.658" x2="867.99" y2="184.311" gradientUnits="userSpaceOnUse">
<stop stop-color="#6136C4"/>
<stop offset="1" stop-color="#7B55D0"/>
</linearGradient>
<linearGradient id="paint21_linear_1001_14555" x1="850.913" y1="90.2426" x2="747.278" y2="213.274" gradientUnits="userSpaceOnUse">
<stop stop-color="#845CD3"/>
<stop offset="1" stop-color="#B46FD3"/>
</linearGradient>
<linearGradient id="paint22_linear_1001_14555" x1="851.478" y1="89.5292" x2="746.551" y2="214.021" gradientUnits="userSpaceOnUse">
<stop stop-color="#845CD3"/>
<stop offset="1" stop-color="#B46FD3"/>
</linearGradient>
<linearGradient id="paint23_linear_1001_14555" x1="964.809" y1="169.732" x2="926.084" y2="307.893" gradientUnits="userSpaceOnUse">
<stop stop-color="#2B84C9"/>
<stop offset="0.701918" stop-color="#30A8E0"/>
<stop offset="1" stop-color="#49F4FF"/>
</linearGradient>
<linearGradient id="paint24_linear_1001_14555" x1="875.634" y1="308.659" x2="1017.82" y2="308.659" gradientUnits="userSpaceOnUse">
<stop stop-color="#2B84C9"/>
<stop offset="1" stop-color="#30A8E0"/>
</linearGradient>
<linearGradient id="paint25_linear_1001_14555" x1="946.728" y1="169.082" x2="946.728" y2="308.659" gradientUnits="userSpaceOnUse">
<stop stop-color="#33BFEA"/>
<stop offset="1" stop-color="#33BFEA" stop-opacity="0"/>
</linearGradient>
<linearGradient id="paint26_linear_1001_14555" x1="875.634" y1="169.082" x2="980.438" y2="332.617" gradientUnits="userSpaceOnUse">
<stop offset="0.527157" stop-color="#3CC7E9" stop-opacity="0"/>
<stop offset="1" stop-color="#46CDEC"/>
</linearGradient>
<linearGradient id="paint27_linear_1001_14555" x1="857.857" y1="434.641" x2="815.177" y2="476.084" gradientUnits="userSpaceOnUse">
<stop stop-color="#6136C4"/>
<stop offset="1" stop-color="#7B55D0"/>
</linearGradient>
<linearGradient id="paint28_linear_1001_14555" x1="848.752" y1="430.778" x2="840.474" y2="438.452" gradientUnits="userSpaceOnUse">
<stop stop-color="#6136C4"/>
<stop offset="1" stop-color="#7B55D0"/>
</linearGradient>
<linearGradient id="paint29_linear_1001_14555" x1="948.379" y1="99.9017" x2="901.839" y2="167.208" gradientUnits="userSpaceOnUse">
<stop offset="0.0278571" stop-color="#03004F"/>
<stop offset="1" stop-color="#6136C4"/>
</linearGradient>
<linearGradient id="paint30_linear_1001_14555" x1="698.131" y1="19.8105" x2="670.022" y2="63.8091" gradientUnits="userSpaceOnUse">
<stop stop-color="#8BEBE3"/>
<stop offset="1" stop-color="#B6FFF9"/>
</linearGradient>
<linearGradient id="paint31_linear_1001_14555" x1="656.992" y1="307.271" x2="620.895" y2="352.696" gradientUnits="userSpaceOnUse">
<stop stop-color="#845CD3"/>
<stop offset="1" stop-color="#B46FD3"/>
</linearGradient>
<linearGradient id="paint32_linear_1001_14555" x1="657.419" y1="306.679" x2="620.22" y2="353.399" gradientUnits="userSpaceOnUse">
<stop stop-color="#845CD3"/>
<stop offset="1" stop-color="#B46FD3"/>
</linearGradient>
<linearGradient id="paint33_linear_1001_14555" x1="638.682" y1="315.092" x2="624.755" y2="330.354" gradientUnits="userSpaceOnUse">
<stop stop-color="#845CD3"/>
<stop offset="1" stop-color="#B46FD3"/>
</linearGradient>
<linearGradient id="paint34_linear_1001_14555" x1="709.94" y1="295.971" x2="778.89" y2="295.971" gradientUnits="userSpaceOnUse">
<stop stop-color="#FF8D02"/>
<stop offset="1" stop-color="#FFC757"/>
</linearGradient>
<linearGradient id="paint35_linear_1001_14555" x1="709.154" y1="295.987" x2="779.563" y2="295.987" gradientUnits="userSpaceOnUse">
<stop stop-color="#FF8D02"/>
<stop offset="1" stop-color="#FFC757"/>
</linearGradient>
<linearGradient id="paint36_linear_1001_14555" x1="828.574" y1="281.957" x2="756.774" y2="384.979" gradientUnits="userSpaceOnUse">
<stop stop-color="#8BEBE3"/>
<stop offset="1" stop-color="#B6FFF9"/>
</linearGradient>
<linearGradient id="paint37_linear_1001_14555" x1="828.975" y1="281.264" x2="756.324" y2="385.484" gradientUnits="userSpaceOnUse">
<stop stop-color="#8BEBE3"/>
<stop offset="1" stop-color="#B6FFF9"/>
</linearGradient>
<linearGradient id="paint38_linear_1001_14555" x1="1060.89" y1="396.249" x2="1003.61" y2="467.432" gradientUnits="userSpaceOnUse">
<stop stop-color="#845CD3"/>
<stop offset="1" stop-color="#B46FD3"/>
</linearGradient>
<linearGradient id="paint39_linear_1001_14555" x1="1061.28" y1="395.741" x2="1003.09" y2="468.171" gradientUnits="userSpaceOnUse">
<stop stop-color="#845CD3"/>
<stop offset="1" stop-color="#B46FD3"/>
</linearGradient>
<linearGradient id="paint40_linear_1001_14555" x1="1043.23" y1="409.738" x2="1021.73" y2="449.516" gradientUnits="userSpaceOnUse">
<stop stop-color="#845CD3"/>
<stop offset="1" stop-color="#B46FD3"/>
</linearGradient>
<linearGradient id="paint41_linear_1001_14555" x1="1061.37" y1="275.089" x2="1168.07" y2="275.089" gradientUnits="userSpaceOnUse">
<stop stop-color="#FF8D02"/>
<stop offset="1" stop-color="#FFC757"/>
</linearGradient>
<linearGradient id="paint42_linear_1001_14555" x1="1196.31" y1="354.278" x2="1142.25" y2="424.164" gradientUnits="userSpaceOnUse">
<stop stop-color="#845CD3"/>
<stop offset="1" stop-color="#B46FD3"/>
</linearGradient>
<linearGradient id="paint43_linear_1001_14555" x1="1196.87" y1="353.712" x2="1141.7" y2="424.872" gradientUnits="userSpaceOnUse">
<stop stop-color="#845CD3"/>
<stop offset="1" stop-color="#B46FD3"/>
</linearGradient>
<linearGradient id="paint44_linear_1001_14555" x1="1019.11" y1="169.844" x2="1088.06" y2="169.844" gradientUnits="userSpaceOnUse">
<stop stop-color="#FF8D02"/>
<stop offset="1" stop-color="#FFC757"/>
</linearGradient>
<clipPath id="clip0_1001_14555">
<rect width="1536" height="512" fill="white"/>
</clipPath>
</defs>
</svg>
